<?xml version="1.0" encoding="UTF-8"?>
<svg width="45px" height="45px" viewBox="0 0 45 45" version="1.1" xmlns="http://www.w3.org/2000/svg" xmlns:xlink="http://www.w3.org/1999/xlink">
    <!-- Generator: Sketch 51.3 (57544) - http://www.bohemiancoding.com/sketch -->
    <title>gorra graduación</title>
    <desc>Created with Sketch.</desc>
    <defs></defs>
    <g id="gorra-graduación" stroke="none" stroke-width="1" fill="none" fill-rule="evenodd">
        <path d="M43.0820312,29.65625 C43.4830749,29.9140638 43.8124987,30.250649 44.0703125,30.6660156 C44.3281263,31.0813823 44.4570312,31.5468724 44.4570312,32.0625 C44.4570312,32.8072954 44.1920599,33.4518202 43.6621094,33.9960938 C43.1321588,34.5403673 42.4804726,34.8125 41.7070312,34.8125 C40.9335899,34.8125 40.2819037,34.5403673 39.7519531,33.9960938 C39.2220026,33.4518202 38.9570312,32.8072954 38.9570312,32.0625 C38.9570312,31.5468724 39.0859362,31.0813823 39.34375,30.6660156 C39.6015638,30.250649 39.9309876,29.9140638 40.3320312,29.65625 L40.3320312,20.03125 L34.7460938,22.953125 C34.8033857,23.0390629 34.8391926,23.132161 34.8535156,23.2324219 C34.8678386,23.3326828 34.875,23.4257808 34.875,23.5117188 L34.875,35.4570312 C34.875,35.6575531 34.8320317,35.8509105 34.7460938,36.0371094 C34.6601558,36.2233082 34.5312509,36.3736973 34.359375,36.4882812 C34.2161451,36.6315111 33.2780035,37.0755171 31.5449219,37.8203125 C29.8118403,38.5651079 26.7682509,38.9375 22.4140625,38.9375 C18.0598741,38.9375 15.0306075,38.5436237 13.3261719,37.7558594 C11.6217363,36.968095 10.6979174,36.5026049 10.5546875,36.359375 C10.3828116,36.2447911 10.2610681,36.094402 10.1894531,35.9082031 C10.1178382,35.7220043 10.0820312,35.5286468 10.0820312,35.328125 L10.0820312,23.6835938 C10.0820312,23.5690098 10.096354,23.4544277 10.125,23.3398438 C10.153646,23.2252598 10.1966143,23.1250004 10.2539062,23.0390625 L1.23046875,18.2265625 C1.00130094,18.1119786 0.82226627,17.9472667 0.693359375,17.7324219 C0.56445248,17.5175771 0.5,17.2812513 0.5,17.0234375 C0.5,16.7656237 0.56445248,16.5292979 0.693359375,16.3144531 C0.82226627,16.0996083 0.986978164,15.9348964 1.1875,15.8203125 L21.7695312,4.734375 C21.9700531,4.61979109 22.1920561,4.5625 22.4355469,4.5625 C22.6790377,4.5625 22.9010407,4.61979109 23.1015625,4.734375 L43.8125,15.7773438 C44.0130218,15.9205736 44.1777337,16.0996083 44.3066406,16.3144531 C44.4355475,16.5292979 44.5,16.7656237 44.5,17.0234375 C44.5,17.2526053 44.4355475,17.4817697 44.3066406,17.7109375 C44.1777337,17.9401053 43.9986991,18.1119786 43.7695312,18.2265625 L43.0820312,18.5703125 L43.0820312,29.65625 Z M32.125,34.640625 L32.125,24.3710938 L23.0585938,29.140625 C22.9440098,29.197917 22.836589,29.2408853 22.7363281,29.2695312 C22.6360672,29.2981772 22.5286464,29.3125 22.4140625,29.3125 C22.2994786,29.3125 22.1848964,29.2981772 22.0703125,29.2695312 C21.9557286,29.2408853 21.8554692,29.197917 21.7695312,29.140625 L12.8320312,24.4140625 L12.8320312,34.5976562 C13.3190129,34.85547 14.3144456,35.1848938 15.8183594,35.5859375 C17.3222731,35.9869812 19.5208189,36.1875 22.4140625,36.1875 C25.3073061,36.1875 27.5130132,35.9941426 29.03125,35.6074219 C30.5494868,35.2207012 31.5807264,34.8984388 32.125,34.640625 Z M22.4140625,26.390625 L40.203125,16.9804688 L22.4570312,7.484375 L4.7109375,16.9804688 L22.4140625,26.390625 Z" id="" fill="#FFC000"></path>
    </g>
</svg>