<?xml version="1.0" encoding="UTF-8"?>
<svg width="45px" height="45px" viewBox="0 0 45 45" version="1.1" xmlns="http://www.w3.org/2000/svg" xmlns:xlink="http://www.w3.org/1999/xlink">
    <!-- Generator: Sketch 51.3 (57544) - http://www.bohemiancoding.com/sketch -->
    <title>libreta</title>
    <desc>Created with Sketch.</desc>
    <defs></defs>
    <g id="libreta" stroke="none" stroke-width="1" fill="none" fill-rule="evenodd">
        <path d="M36.9804688,0.75 C38.1263078,0.75 39.1002564,1.15103766 39.9023438,1.953125 C40.7044311,2.75521234 41.1054688,3.72916094 41.1054688,4.875 L41.1054688,40.625 C41.1054688,41.7708391 40.7044311,42.7447877 39.9023438,43.546875 C39.1002564,44.3489623 38.1263078,44.75 36.9804688,44.75 L9.5234375,44.75 C9.00780992,44.75 8.41341482,44.5781267 7.74023438,44.234375 C7.06705393,43.8906233 6.73046875,43.1458391 6.73046875,42 L6.73046875,36.4570312 L5.3125,36.4570312 C4.96874828,36.4570312 4.66080865,36.3209649 4.38867188,36.0488281 C4.1165351,35.7766913 3.98046875,35.4544289 3.98046875,35.0820312 C3.98046875,34.7096336 4.1165351,34.3945325 4.38867188,34.1367188 C4.66080865,33.878905 4.96874828,33.75 5.3125,33.75 L6.73046875,33.75 L6.73046875,28.25 L5.3125,28.25 C4.96874828,28.25 4.66080865,28.1139337 4.38867188,27.8417969 C4.1165351,27.5696601 3.98046875,27.2473977 3.98046875,26.875 C3.98046875,26.5026023 4.1165351,26.1875013 4.38867188,25.9296875 C4.66080865,25.6718737 4.96874828,25.5429688 5.3125,25.5429688 L6.73046875,25.5429688 L6.73046875,19.9570312 L5.35546875,19.9570312 C4.98307105,19.9570312 4.66797004,19.8281263 4.41015625,19.5703125 C4.15234246,19.3124987 4.0234375,18.9973977 4.0234375,18.625 C4.0234375,18.2526023 4.15234246,17.9375013 4.41015625,17.6796875 C4.66797004,17.4218737 4.98307105,17.2929688 5.35546875,17.2929688 L6.73046875,17.2929688 L6.73046875,11.75 L5.2265625,11.75 C4.8541648,11.75 4.53906379,11.621095 4.28125,11.3632812 C4.02343621,11.1054675 3.89453125,10.7903664 3.89453125,10.4179688 C3.89453125,10.0455711 4.02343621,9.72330865 4.28125,9.45117188 C4.53906379,9.1790351 4.8541648,9.04296875 5.2265625,9.04296875 L6.73046875,9.04296875 L6.73046875,3.5859375 C6.73046875,2.89843406 6.95963312,2.25390926 7.41796875,1.65234375 C7.87630438,1.05077824 8.59244305,0.75 9.56640625,0.75 L36.9804688,0.75 Z M9.48046875,42 L31.4804688,42 L31.4804688,3.5 L9.48046875,3.5 L9.48046875,9.04296875 L10.8125,9.04296875 C11.1848977,9.04296875 11.4999987,9.1790351 11.7578125,9.45117188 C12.0156263,9.72330865 12.1445312,10.0455711 12.1445312,10.4179688 C12.1445312,10.7903664 12.0156263,11.1054675 11.7578125,11.3632812 C11.4999987,11.621095 11.1848977,11.75 10.8125,11.75 L9.48046875,11.75 L9.48046875,17.2929688 L10.9414062,17.2929688 C11.3138039,17.2929688 11.628905,17.4218737 11.8867188,17.6796875 C12.1445325,17.9375013 12.2734375,18.2526023 12.2734375,18.625 C12.2734375,18.9973977 12.1445325,19.3124987 11.8867188,19.5703125 C11.628905,19.8281263 11.3138039,19.9570312 10.9414062,19.9570312 L9.48046875,19.9570312 L9.48046875,25.5429688 L10.8984375,25.5429688 C11.2708352,25.5429688 11.5930976,25.6718737 11.8652344,25.9296875 C12.1373712,26.1875013 12.2734375,26.5026023 12.2734375,26.875 C12.2734375,27.2473977 12.1373712,27.5696601 11.8652344,27.8417969 C11.5930976,28.1139337 11.2708352,28.25 10.8984375,28.25 L9.48046875,28.25 L9.48046875,33.75 L10.8984375,33.75 C11.2708352,33.75 11.5930976,33.878905 11.8652344,34.1367188 C12.1373712,34.3945325 12.2734375,34.7096336 12.2734375,35.0820312 C12.2734375,35.4544289 12.1373712,35.7766913 11.8652344,36.0488281 C11.5930976,36.3209649 11.2708352,36.4570312 10.8984375,36.4570312 L9.48046875,36.4570312 L9.48046875,42 Z M38.3554688,40.625 L38.3554688,4.875 C38.3554688,4.5026023 38.2194024,4.1803399 37.9472656,3.90820312 C37.6751288,3.63606635 37.3528664,3.5 36.9804688,3.5 L34.2304688,3.5 L34.2304688,42 L36.9804688,42 C37.3528664,42 37.6751288,41.8639337 37.9472656,41.5917969 C38.2194024,41.3196601 38.3554688,40.9973977 38.3554688,40.625 Z" id="Notebook---simple-line-icons" fill="#FFC000"></path>
    </g>
</svg>