<?xml version="1.0" encoding="UTF-8"?>
<svg width="45px" height="45px" viewBox="0 0 45 45" version="1.1" xmlns="http://www.w3.org/2000/svg" xmlns:xlink="http://www.w3.org/1999/xlink">
    <!-- Generator: Sketch 51.3 (57544) - http://www.bohemiancoding.com/sketch -->
    <title>reloj</title>
    <desc>Created with Sketch.</desc>
    <defs></defs>
    <g id="reloj" stroke="none" stroke-width="1" fill="none" fill-rule="evenodd">
        <path d="M22.5,0.75 C25.5364735,0.75 28.3938668,1.32291094 31.0722656,2.46875 C33.7506644,3.61458906 36.0852765,5.18293275 38.0761719,7.17382812 C40.0670672,9.1647235 41.6354109,11.4993356 42.78125,14.1777344 C43.9270891,16.8561332 44.5,19.7135265 44.5,22.75 C44.5,25.7864735 43.9270891,28.6438668 42.78125,31.3222656 C41.6354109,34.0006644 40.0670672,36.3352765 38.0761719,38.3261719 C36.0852765,40.3170672 33.7506644,41.8854109 31.0722656,43.03125 C28.3938668,44.1770891 25.5364735,44.75 22.5,44.75 C19.4635265,44.75 16.6061332,44.1770891 13.9277344,43.03125 C11.2493356,41.8854109 8.9147235,40.3170672 6.92382812,38.3261719 C4.93293275,36.3352765 3.36458906,34.0006644 2.21875,31.3222656 C1.07291094,28.6438668 0.5,25.7864735 0.5,22.75 C0.5,19.7135265 1.07291094,16.8561332 2.21875,14.1777344 C3.36458906,11.4993356 4.93293275,9.1647235 6.92382812,7.17382812 C8.9147235,5.18293275 11.2493356,3.61458906 13.9277344,2.46875 C16.6061332,1.32291094 19.4635265,0.75 22.5,0.75 Z M22.5,42.0429688 C25.1640758,42.0429688 27.6633998,41.5345103 29.9980469,40.5175781 C32.332694,39.500646 34.3665278,38.1184983 36.0996094,36.3710938 C37.832691,34.6236892 39.2076772,32.582694 40.2246094,30.2480469 C41.2415415,27.9133998 41.75,25.4140758 41.75,22.75 C41.75,20.0859242 41.2415415,17.5866002 40.2246094,15.2519531 C39.2076772,12.917306 37.832691,10.8834722 36.0996094,9.15039062 C34.3665278,7.41730904 32.332694,6.04232279 29.9980469,5.02539062 C27.6633998,4.00845846 25.1640758,3.5 22.5,3.5 C19.8359242,3.5 17.3366002,4.00845846 15.0019531,5.02539062 C12.667306,6.04232279 10.6334722,7.41730904 8.90039062,9.15039062 C7.16730904,10.8834722 5.79232279,12.917306 4.77539062,15.2519531 C3.75845846,17.5866002 3.25,20.0859242 3.25,22.75 C3.25,25.4140758 3.75845846,27.9133998 4.77539062,30.2480469 C5.79232279,32.582694 7.16730904,34.6236892 8.90039062,36.3710938 C10.6334722,38.1184983 12.667306,39.500646 15.0019531,40.5175781 C17.3366002,41.5345103 19.8359242,42.0429688 22.5,42.0429688 Z M23.875,22.1914062 L30.3632812,28.6796875 C30.621095,28.9375013 30.75,29.2597637 30.75,29.6464844 C30.75,30.0332051 30.621095,30.3554675 30.3632812,30.6132812 C30.1054675,30.899741 29.7832051,31.0429688 29.3964844,31.0429688 C29.0097637,31.0429688 28.6875013,30.899741 28.4296875,30.6132812 L21.5976562,23.8242188 C21.5976562,23.7955728 21.5904949,23.7740886 21.5761719,23.7597656 C21.5618489,23.7454426 21.5546875,23.7382812 21.5546875,23.7382812 C21.4114576,23.6236973 21.3040368,23.4804696 21.2324219,23.3085938 C21.1608069,23.1367179 21.125,22.9505218 21.125,22.75 L21.125,9 C21.125,8.6276023 21.2610663,8.3053399 21.5332031,8.03320312 C21.8053399,7.76106635 22.1276023,7.625 22.5,7.625 C22.8723977,7.625 23.1946601,7.76106635 23.4667969,8.03320312 C23.7389337,8.3053399 23.875,8.6276023 23.875,9 L23.875,22.1914062 Z" id="clock---simple-line-icons" fill="#FFC000"></path>
    </g>
</svg>