<?xml version="1.0" encoding="UTF-8"?>
<svg width="45px" height="45px" viewBox="0 0 45 45" version="1.1" xmlns="http://www.w3.org/2000/svg" xmlns:xlink="http://www.w3.org/1999/xlink">
    <!-- Generator: Sketch 51.3 (57544) - http://www.bohemiancoding.com/sketch -->
    <title>archivo</title>
    <desc>Created with Sketch.</desc>
    <defs></defs>
    <g id="archivo" stroke="none" stroke-width="1" fill="none" fill-rule="evenodd">
        <path d="M24.5625,0.75 L38.3125,14.5 L38.3125,42 C38.3125,42.7734414 38.0475287,43.4251276 37.5175781,43.9550781 C36.9876276,44.4850287 36.3359414,44.75 35.5625,44.75 L9.4375,44.75 C8.66405863,44.75 8.01237244,44.4850287 7.48242188,43.9550781 C6.95247131,43.4251276 6.6875,42.7734414 6.6875,42 L6.6875,3.5 C6.6875,2.72655863 6.95247131,2.07487244 7.48242188,1.54492188 C8.01237244,1.01497131 8.66405863,0.75 9.4375,0.75 L24.5625,0.75 Z M35.5625,15.6601562 L23.4453125,3.5 L23.1875,3.5 L23.1875,15.875 L35.5625,15.875 L35.5625,15.6601562 Z M9.4375,42 L35.5625,42 L35.5625,18.625 L20.4375,18.625 L20.4375,3.5 L9.4375,3.5 L9.4375,42 Z" id="Doc---simple-line-icons" fill="#FFC000"></path>
    </g>
</svg>