<?xml version="1.0" encoding="UTF-8"?>
<svg width="45px" height="45px" viewBox="0 0 45 45" version="1.1" xmlns="http://www.w3.org/2000/svg" xmlns:xlink="http://www.w3.org/1999/xlink">
    <!-- Generator: Sketch 51.3 (57544) - http://www.bohemiancoding.com/sketch -->
    <title>mapamundi</title>
    <desc>Created with Sketch.</desc>
    <defs></defs>
    <g id="mapamundi" stroke="none" stroke-width="1" fill="none" fill-rule="evenodd">
        <path d="M40.4609375,18.5390625 C40.4609375,21.3177222 40.0169315,23.8958214 39.1289062,26.2734375 C38.240881,28.6510536 37.0019611,30.7350171 35.4121094,32.5253906 C33.8222577,34.3157642 31.9244902,35.7838484 29.71875,36.9296875 C27.5130098,38.0755266 25.0924611,38.805988 22.4570312,39.1210938 L22.4570312,42 L26.625,42 C27.0260437,42 27.3626288,42.128905 27.6347656,42.3867188 C27.9069024,42.6445325 28.0429688,42.9739563 28.0429688,43.375 C28.0429688,43.7473977 27.9069024,44.0696601 27.6347656,44.3417969 C27.3626288,44.6139337 27.0260437,44.75 26.625,44.75 L15.7539062,44.75 C15.3528626,44.75 15.009116,44.6139337 14.7226562,44.3417969 C14.4361965,44.0696601 14.2929688,43.7473977 14.2929688,43.375 C14.2929688,42.9739563 14.4361965,42.6445325 14.7226562,42.3867188 C15.009116,42.128905 15.3528626,42 15.7539062,42 L19.75,42 L19.75,39.2929688 L19.7070312,39.2929688 C18.3606704,39.2929688 17.0429752,39.1640638 15.7539062,38.90625 C14.4648373,38.6484362 13.2044332,38.2760441 11.9726562,37.7890625 C11.6289045,37.6458326 11.378256,37.3951841 11.2207031,37.0371094 C11.0631503,36.6790347 11.0559889,36.3281267 11.1992188,35.984375 C11.3424486,35.6406233 11.5930972,35.3971361 11.9511719,35.2539062 C12.3092466,35.1106764 12.6601545,35.1106764 13.0039063,35.2539062 C14.0638074,35.6835959 15.1594996,36.0058583 16.2910156,36.2207031 C17.4225317,36.4355479 18.5611922,36.5429688 19.7070312,36.5429688 C22.3138151,36.5429688 24.7200411,36.0918014 26.9257812,35.1894531 C29.1315214,34.2871049 31.0292889,33.0410236 32.6191406,31.4511719 C34.2089923,29.8613202 35.4550736,27.9635527 36.3574219,25.7578125 C37.2597701,23.5520723 37.7109375,21.1458464 37.7109375,18.5390625 C37.7109375,16.9921798 37.5032573,15.4811272 37.0878906,14.0058594 C36.672524,12.5305916 36.0852903,11.1341212 35.3261719,9.81640625 C34.5670535,8.49869133 33.6432346,7.29557836 32.5546875,6.20703125 C31.4661404,5.11848414 30.2200591,4.15885832 28.8164062,3.328125 C28.5013005,3.12760316 28.2936203,2.84830908 28.1933594,2.49023438 C28.0930985,2.13215967 28.1432282,1.78125172 28.34375,1.4375 C28.5156259,1.12239426 28.7877586,0.914714043 29.1601562,0.814453125 C29.5325539,0.714192207 29.8906233,0.764321914 30.234375,0.96484375 C31.8099037,1.91016098 33.2350197,3.01301453 34.5097656,4.2734375 C35.7845116,5.53386047 36.8587196,6.92316949 37.7324219,8.44140625 C38.6061242,9.95964301 39.2792945,11.570955 39.7519531,13.2753906 C40.2246117,14.9798262 40.4609375,16.734366 40.4609375,18.5390625 Z M34.8320312,18.6679688 C34.8320312,20.759125 34.438155,22.721345 33.6503906,24.5546875 C32.8626263,26.38803 31.7812569,27.9921806 30.40625,29.3671875 C29.0312431,30.7421944 27.4270925,31.8235638 25.59375,32.6113281 C23.7604075,33.3990925 21.7981875,33.7929688 19.7070312,33.7929688 C17.615875,33.7929688 15.653655,33.3990925 13.8203125,32.6113281 C11.98697,31.8235638 10.3828194,30.7421944 9.0078125,29.3671875 C7.63280562,27.9921806 6.55143623,26.38803 5.76367188,24.5546875 C4.97590752,22.721345 4.58203125,20.759125 4.58203125,18.6679688 C4.58203125,16.5768125 4.97590752,14.6145925 5.76367188,12.78125 C6.55143623,10.9479075 7.63280562,9.34375687 9.0078125,7.96875 C10.3828194,6.59374313 11.98697,5.50521234 13.8203125,4.703125 C15.653655,3.90103766 17.615875,3.5 19.7070312,3.5 C21.7981875,3.5 23.7604075,3.90103766 25.59375,4.703125 C27.4270925,5.50521234 29.0312431,6.59374313 30.40625,7.96875 C31.7812569,9.34375687 32.8626263,10.9479075 33.6503906,12.78125 C34.438155,14.6145925 34.8320312,16.5768125 34.8320312,18.6679688 Z M7.2890625,18.6679688 C7.2890625,20.3867273 7.61848629,21.9980394 8.27734375,23.5019531 C8.93620121,25.0058669 9.82421316,26.3164007 10.9414062,27.4335938 C12.0585993,28.5507868 13.3691331,29.4316374 14.8730469,30.0761719 C16.3769606,30.7207063 17.9882727,31.0429688 19.7070312,31.0429688 C21.4257898,31.0429688 23.0371019,30.7207063 24.5410156,30.0761719 C26.0449294,29.4316374 27.3554632,28.5507868 28.4726562,27.4335938 C29.5898493,26.3164007 30.4706999,25.0058669 31.1152344,23.5019531 C31.7597688,21.9980394 32.0820312,20.3867273 32.0820312,18.6679688 C32.0820312,16.9778561 31.7597688,15.3737055 31.1152344,13.8554688 C30.4706999,12.337232 29.5898493,11.0195368 28.4726562,9.90234375 C27.3554632,8.78515066 26.0449294,7.89713871 24.5410156,7.23828125 C23.0371019,6.57942379 21.4257898,6.25 19.7070312,6.25 C17.9882727,6.25 16.3769606,6.57942379 14.8730469,7.23828125 C13.3691331,7.89713871 12.0585993,8.78515066 10.9414062,9.90234375 C9.82421316,11.0195368 8.93620121,12.337232 8.27734375,13.8554688 C7.61848629,15.3737055 7.2890625,16.9778561 7.2890625,18.6679688 Z" id="Globe-alt---simple-line-icons" fill="#FFC000"></path>
    </g>
</svg>