<?xml version="1.0" encoding="UTF-8"?>
<svg width="45px" height="45px" viewBox="0 0 45 45" version="1.1" xmlns="http://www.w3.org/2000/svg" xmlns:xlink="http://www.w3.org/1999/xlink">
    <!-- Generator: Sketch 51.3 (57544) - http://www.bohemiancoding.com/sketch -->
    <title>certificación</title>
    <desc>Created with Sketch.</desc>
    <defs></defs>
    <g id="certificación" stroke="none" stroke-width="1" fill="none" fill-rule="evenodd">
        <path d="M44.3710938,36.84375 C44.5143236,37.0729178 44.5716147,37.3235663 44.5429688,37.5957031 C44.5143228,37.8678399 44.4140634,38.1184884 44.2421875,38.3476562 C44.0989576,38.5481781 43.8984388,38.6985672 43.640625,38.7988281 C43.3828112,38.899089 43.1250013,38.9062504 42.8671875,38.8203125 L35.9492188,37.2734375 L33.5859375,43.8476562 C33.4999996,44.10547 33.3496104,44.3131503 33.1347656,44.4707031 C32.9199208,44.628256 32.683595,44.721354 32.4257812,44.75 L32.296875,44.75 C32.0390612,44.75 31.8027354,44.6855475 31.5878906,44.5566406 C31.3730458,44.4277337 31.2083339,44.2486991 31.09375,44.0195312 L23.9179688,30.9140625 C23.6888009,30.9427085 23.4524752,30.9641926 23.2089844,30.9785156 C22.9654936,30.9928386 22.7291678,31 22.5,31 C22.2421862,31 21.9843763,30.9928386 21.7265625,30.9785156 C21.4687487,30.9641926 21.2109388,30.9427085 20.953125,30.9140625 L13.90625,44.0195312 C13.7916661,44.2486991 13.6269542,44.4277337 13.4121094,44.5566406 C13.1972646,44.6855475 12.9609388,44.75 12.703125,44.75 L12.6171875,44.75 C12.3307277,44.721354 12.0800792,44.628256 11.8652344,44.4707031 C11.6503896,44.3131503 11.5000004,44.10547 11.4140625,43.8476562 L9.05078125,37.2734375 L2.1328125,38.8203125 C1.87499871,38.9062504 1.61718879,38.899089 1.359375,38.7988281 C1.10156121,38.6985672 0.901042383,38.5338553 0.7578125,38.3046875 C0.585936641,38.1041657 0.485677227,37.8678399 0.45703125,37.5957031 C0.428385273,37.3235663 0.485676367,37.0729178 0.62890625,36.84375 L8.70703125,22.1054688 C8.2773416,21.1601515 7.94791781,20.1647188 7.71875,19.1191406 C7.48958219,18.0735625 7.375,16.9921931 7.375,15.875 C7.375,13.7838437 7.76887627,11.8216238 8.55664062,9.98828125 C9.34440498,8.15493875 10.4257744,6.55078812 11.8007812,5.17578125 C13.1757881,3.80077438 14.7799387,2.71940498 16.6132812,1.93164062 C18.4466238,1.14387627 20.4088437,0.75 22.5,0.75 C24.5911563,0.75 26.5533762,1.14387627 28.3867187,1.93164062 C30.2200613,2.71940498 31.8170505,3.80077438 33.1777344,5.17578125 C34.5384183,6.55078812 35.6197877,8.15493875 36.421875,9.98828125 C37.2239623,11.8216238 37.625,13.7838437 37.625,15.875 C37.625,16.9635471 37.5104178,18.016271 37.28125,19.0332031 C37.0520822,20.0501353 36.7369812,21.0312453 36.3359375,21.9765625 L44.3710938,36.84375 Z M12.9609375,39.9804688 L18.1171875,30.3554688 C16.5416588,29.8684871 15.0878973,29.1523485 13.7558594,28.2070312 C12.4238215,27.261714 11.285161,26.1445377 10.3398438,24.8554688 L4.49609375,35.46875 L9.609375,34.3085938 C9.95312672,34.2226558 10.2753891,34.2656241 10.5761719,34.4375 C10.8769546,34.6093759 11.0989576,34.852863 11.2421875,35.1679688 L12.9609375,39.9804688 Z M10.125,15.875 C10.125,17.5651126 10.4472624,19.1621019 11.0917969,20.6660156 C11.7363313,22.1699294 12.6243433,23.4804632 13.7558594,24.5976562 C14.8873754,25.7148493 16.1979092,26.6028613 17.6875,27.2617188 C19.1770908,27.9205762 20.7812414,28.25 22.5,28.25 C24.1901126,28.25 25.7871019,27.9205762 27.2910156,27.2617188 C28.7949294,26.6028613 30.1054632,25.7148493 31.2226563,24.5976562 C32.3398493,23.4804632 33.2206999,22.1699294 33.8652344,20.6660156 C34.5097688,19.1621019 34.8320312,17.5651126 34.8320312,15.875 C34.8320312,14.1848874 34.5097688,12.5878981 33.8652344,11.0839844 C33.2206999,9.58007061 32.3398493,8.26953684 31.2226563,7.15234375 C30.1054632,6.03515066 28.7949294,5.14713871 27.2910156,4.48828125 C25.7871019,3.82942379 24.1901126,3.5 22.5,3.5 C20.7812414,3.5 19.1770908,3.82942379 17.6875,4.48828125 C16.1979092,5.14713871 14.8873754,6.03515066 13.7558594,7.15234375 C12.6243433,8.26953684 11.7363313,9.58007061 11.0917969,11.0839844 C10.4472624,12.5878981 10.125,14.1848874 10.125,15.875 Z M35.390625,34.3085938 L40.5039063,35.46875 L34.703125,24.7695312 C33.7291618,26.0872462 32.5618558,27.233068 31.2011719,28.2070312 C29.840488,29.1809945 28.3580809,29.9114559 26.7539063,30.3984375 L32.0390625,40.0234375 L33.7578125,35.1679688 C33.9010424,34.852863 34.1230454,34.6093759 34.4238281,34.4375 C34.7246109,34.2656241 35.0468733,34.2226558 35.390625,34.3085938 Z" id="" fill="#FFC000"></path>
    </g>
</svg>