<?xml version="1.0" encoding="UTF-8"?>
<svg width="45px" height="45px" viewBox="0 0 45 45" version="1.1" xmlns="http://www.w3.org/2000/svg" xmlns:xlink="http://www.w3.org/1999/xlink">
    <!-- Generator: Sketch 51.3 (57544) - http://www.bohemiancoding.com/sketch -->
    <title>calendario</title>
    <desc>Created with Sketch.</desc>
    <defs></defs>
    <g id="calendario" stroke="none" stroke-width="1" fill="none" fill-rule="evenodd">
        <path d="M41.75,4.875 C42.5234414,4.875 43.1751276,5.13997131 43.7050781,5.66992188 C44.2350287,6.19987244 44.5,6.85155863 44.5,7.625 L44.5,42 C44.5,42.7447954 44.2350287,43.3893202 43.7050781,43.9335938 C43.1751276,44.4778673 42.5234414,44.75 41.75,44.75 L3.25,44.75 C2.47655863,44.75 1.82487244,44.4778673 1.29492188,43.9335938 C0.764971309,43.3893202 0.5,42.7447954 0.5,42 L0.5,7.625 C0.5,6.85155863 0.764971309,6.19987244 1.29492188,5.66992188 C1.82487244,5.13997131 2.47655863,4.875 3.25,4.875 L14.25,4.875 L14.25,2.125 C14.25,1.7526023 14.3860663,1.4303399 14.6582031,1.15820312 C14.9303399,0.886066348 15.2526023,0.75 15.625,0.75 C15.9973977,0.75 16.3196601,0.886066348 16.5917969,1.15820312 C16.8639337,1.4303399 17,1.7526023 17,2.125 L17,4.875 L28,4.875 L28,2.125 C28,1.7526023 28.1360663,1.4303399 28.4082031,1.15820312 C28.6803399,0.886066348 29.0026023,0.75 29.375,0.75 C29.7473977,0.75 30.0696601,0.886066348 30.3417969,1.15820312 C30.6139337,1.4303399 30.75,1.7526023 30.75,2.125 L30.75,4.875 L41.75,4.875 Z M41.75,42 L41.75,7.625 L30.75,7.625 L30.75,9 C30.75,9.3723977 30.6139337,9.6946601 30.3417969,9.96679688 C30.0696601,10.2389337 29.7473977,10.375 29.375,10.375 C29.0026023,10.375 28.6803399,10.2389337 28.4082031,9.96679688 C28.1360663,9.6946601 28,9.3723977 28,9 L28,7.625 L17,7.625 L17,9 C17,9.3723977 16.8639337,9.6946601 16.5917969,9.96679688 C16.3196601,10.2389337 15.9973977,10.375 15.625,10.375 C15.2526023,10.375 14.9303399,10.2389337 14.6582031,9.96679688 C14.3860663,9.6946601 14.25,9.3723977 14.25,9 L14.25,7.625 L3.25,7.625 L3.25,42 L41.75,42 Z M32.125,22.75 C31.7526023,22.75 31.4303399,22.6139337 31.1582031,22.3417969 C30.8860663,22.0696601 30.75,21.7473977 30.75,21.375 L30.75,18.625 C30.75,18.2526023 30.8860663,17.9303399 31.1582031,17.6582031 C31.4303399,17.3860663 31.7526023,17.25 32.125,17.25 L34.875,17.25 C35.2473977,17.25 35.5696601,17.3860663 35.8417969,17.6582031 C36.1139337,17.9303399 36.25,18.2526023 36.25,18.625 L36.25,21.375 C36.25,21.7473977 36.1139337,22.0696601 35.8417969,22.3417969 C35.5696601,22.6139337 35.2473977,22.75 34.875,22.75 L32.125,22.75 Z M32.125,33.75 C31.7526023,33.75 31.4303399,33.6139337 31.1582031,33.3417969 C30.8860663,33.0696601 30.75,32.7473977 30.75,32.375 L30.75,29.625 C30.75,29.2526023 30.8860663,28.9303399 31.1582031,28.6582031 C31.4303399,28.3860663 31.7526023,28.25 32.125,28.25 L34.875,28.25 C35.2473977,28.25 35.5696601,28.3860663 35.8417969,28.6582031 C36.1139337,28.9303399 36.25,29.2526023 36.25,29.625 L36.25,32.375 C36.25,32.7473977 36.1139337,33.0696601 35.8417969,33.3417969 C35.5696601,33.6139337 35.2473977,33.75 34.875,33.75 L32.125,33.75 Z M23.875,28.25 C24.2473977,28.25 24.5696601,28.3860663 24.8417969,28.6582031 C25.1139337,28.9303399 25.25,29.2526023 25.25,29.625 L25.25,32.375 C25.25,32.7473977 25.1139337,33.0696601 24.8417969,33.3417969 C24.5696601,33.6139337 24.2473977,33.75 23.875,33.75 L21.125,33.75 C20.7526023,33.75 20.4303399,33.6139337 20.1582031,33.3417969 C19.8860663,33.0696601 19.75,32.7473977 19.75,32.375 L19.75,29.625 C19.75,29.2526023 19.8860663,28.9303399 20.1582031,28.6582031 C20.4303399,28.3860663 20.7526023,28.25 21.125,28.25 L23.875,28.25 Z M23.875,17.25 C24.2473977,17.25 24.5696601,17.3860663 24.8417969,17.6582031 C25.1139337,17.9303399 25.25,18.2526023 25.25,18.625 L25.25,21.375 C25.25,21.7473977 25.1139337,22.0696601 24.8417969,22.3417969 C24.5696601,22.6139337 24.2473977,22.75 23.875,22.75 L21.125,22.75 C20.7526023,22.75 20.4303399,22.6139337 20.1582031,22.3417969 C19.8860663,22.0696601 19.75,21.7473977 19.75,21.375 L19.75,18.625 C19.75,18.2526023 19.8860663,17.9303399 20.1582031,17.6582031 C20.4303399,17.3860663 20.7526023,17.25 21.125,17.25 L23.875,17.25 Z M12.875,17.25 C13.2473977,17.25 13.5696601,17.3860663 13.8417969,17.6582031 C14.1139337,17.9303399 14.25,18.2526023 14.25,18.625 L14.25,21.375 C14.25,21.7473977 14.1139337,22.0696601 13.8417969,22.3417969 C13.5696601,22.6139337 13.2473977,22.75 12.875,22.75 L10.125,22.75 C9.7526023,22.75 9.4303399,22.6139337 9.15820312,22.3417969 C8.88606635,22.0696601 8.75,21.7473977 8.75,21.375 L8.75,18.625 C8.75,18.2526023 8.88606635,17.9303399 9.15820312,17.6582031 C9.4303399,17.3860663 9.7526023,17.25 10.125,17.25 L12.875,17.25 Z M12.875,28.25 C13.2473977,28.25 13.5696601,28.3860663 13.8417969,28.6582031 C14.1139337,28.9303399 14.25,29.2526023 14.25,29.625 L14.25,32.375 C14.25,32.7473977 14.1139337,33.0696601 13.8417969,33.3417969 C13.5696601,33.6139337 13.2473977,33.75 12.875,33.75 L10.125,33.75 C9.7526023,33.75 9.4303399,33.6139337 9.15820312,33.3417969 C8.88606635,33.0696601 8.75,32.7473977 8.75,32.375 L8.75,29.625 C8.75,29.2526023 8.88606635,28.9303399 9.15820312,28.6582031 C9.4303399,28.3860663 9.7526023,28.25 10.125,28.25 L12.875,28.25 Z" id="Calendar---simple-line-icons" fill="#FFC000"></path>
    </g>
</svg>