<?xml version="1.0" encoding="UTF-8"?>
<svg width="45px" height="45px" viewBox="0 0 45 45" version="1.1" xmlns="http://www.w3.org/2000/svg" xmlns:xlink="http://www.w3.org/1999/xlink">
    <!-- Generator: Sketch 51.3 (57544) - http://www.bohemiancoding.com/sketch -->
    <title>lápiz</title>
    <desc>Created with Sketch.</desc>
    <defs></defs>
    <g id="lápiz" stroke="none" stroke-width="1" fill="none" fill-rule="evenodd">
        <path d="M41.921875,2.8984375 C42.7812543,3.70052484 43.4257791,4.53840709 43.8554688,5.41210938 C44.2851584,6.28581166 44.5143228,7.16666223 44.5429688,8.0546875 C44.5716147,9.00000473 44.3710959,9.92382361 43.9414062,10.8261719 C43.5117166,11.7285201 42.8815146,12.6093707 42.0507812,13.46875 C41.6497376,13.8984396 40.045587,15.5025903 37.2382812,18.28125 C34.4309755,21.0599097 31.401709,24.0605308 28.1503906,27.2832031 C24.8990723,30.5058755 21.912774,33.4635282 19.1914062,36.15625 C16.4700385,38.8489718 14.98047,40.3242175 14.7226562,40.5820312 C14.6367183,40.6679692 14.5436203,40.739583 14.4433594,40.796875 C14.3430985,40.854167 14.2356777,40.8971353 14.1210938,40.9257812 C13.7200501,41.0403652 12.8750064,41.3053365 11.5859375,41.7207031 C10.2968686,42.1360698 8.97201201,42.5585916 7.61132812,42.9882812 C6.25064424,43.4179709 5.02604711,43.8118472 3.9375,44.1699219 C2.84895289,44.5279966 2.29036473,44.7070312 2.26171875,44.7070312 C2.2044268,44.7356772 2.13997432,44.7571614 2.06835938,44.7714844 C1.99674443,44.7858074 1.91796918,44.7929688 1.83203125,44.7929688 C1.66015539,44.7929688 1.48828211,44.7571618 1.31640625,44.6855469 C1.14453039,44.6139319 1.00130266,44.5065111 0.88671875,44.3632812 C0.686196914,44.1914054 0.557291953,43.9765638 0.5,43.71875 C0.442708047,43.4609362 0.442708047,43.2031263 0.5,42.9453125 C0.528645977,42.9166665 0.700519258,42.3795625 1.015625,41.3339844 C1.33073074,40.2884062 1.69596146,39.0781319 2.11132812,37.703125 C2.52669479,36.3281181 2.92773244,34.9889388 3.31445312,33.6855469 C3.70117381,32.3821549 3.96614512,31.4440133 4.109375,30.8710938 C4.16666695,30.7565098 4.22395805,30.649089 4.28125,30.5488281 C4.33854195,30.4485672 4.41015582,30.3554692 4.49609375,30.2695312 L17.8164062,16.9492188 C21.1679855,13.5976395 24.268866,10.4895977 27.1191406,7.625 C29.9694153,4.76040234 31.4947907,3.24218836 31.6953125,3.0703125 C31.9817723,2.78385273 32.5976515,2.3183626 33.5429688,1.67382812 C34.488286,1.02929365 35.6484306,0.70703125 37.0234375,0.70703125 C37.9114628,0.70703125 38.7636678,0.893227305 39.5800781,1.265625 C40.3964885,1.6380227 41.1770796,2.18228809 41.921875,2.8984375 Z M31.265625,7.453125 C29.9192641,8.77083992 28.2005313,10.47525 26.109375,12.5664062 C24.0182187,14.6575625 21.8626413,16.8203013 19.6425781,19.0546875 C17.4225149,21.2890737 15.2955831,23.4231669 13.2617188,25.4570312 L8.40625,30.3125 C8.97916953,30.5416678 9.61653295,30.8710916 10.3183594,31.3007812 C11.0201858,31.7304709 11.7291631,32.3033818 12.4453125,33.0195312 C13.018232,33.6210968 13.4980449,34.2298146 13.8847656,34.8457031 C14.2714863,35.4615916 14.5794259,36.0273412 14.8085938,36.5429688 C16.0117248,35.3398377 17.6230368,33.7428485 19.6425781,31.7519531 C21.6621195,29.7610578 23.7747286,27.6699328 25.9804688,25.4785156 C28.1862089,23.2870984 30.3274636,21.1601666 32.4042969,19.0976562 C34.4811302,17.0351459 36.1927016,15.3450587 37.5390625,14.0273438 C37.5104165,13.7981759 37.3457046,13.2610719 37.0449219,12.4160156 C36.7441391,11.5709593 36.1640668,10.7187543 35.3046875,9.859375 C34.4453082,9.02864168 33.6432329,8.44140797 32.8984375,8.09765625 C32.1536421,7.75390453 31.6093767,7.53906293 31.265625,7.453125 Z M6.515625,32.6328125 C6.20051926,33.6927136 5.76367467,35.0963454 5.20507812,36.84375 C4.64648158,38.5911546 4.16666867,40.1093686 3.765625,41.3984375 C5.1119859,40.9687479 6.6731682,40.453128 8.44921875,39.8515625 C10.2252693,39.249997 11.5859328,38.7916682 12.53125,38.4765625 C12.3880201,38.0468729 12.1588557,37.5169302 11.84375,36.8867188 C11.5286443,36.2565073 11.0703155,35.640628 10.46875,35.0390625 C9.66666266,34.2369752 8.90755566,33.6569028 8.19140625,33.2988281 C7.47525684,32.9407534 6.91666867,32.7187504 6.515625,32.6328125 Z M40.03125,11.4921875 C40.6041695,10.919268 41.0338527,10.346357 41.3203125,9.7734375 C41.6067723,9.20051797 41.75,8.65625258 41.75,8.140625 C41.75,7.62499742 41.5996109,7.0950548 41.2988281,6.55078125 C40.9980454,6.0065077 40.5612008,5.4622423 39.9882812,4.91796875 C39.5299456,4.45963312 39.0501327,4.11588656 38.5488281,3.88671875 C38.0475235,3.65755094 37.5390651,3.54296875 37.0234375,3.54296875 C36.1354122,3.54296875 35.3691438,3.77213312 34.7246094,4.23046875 C34.0800749,4.68880438 33.729167,4.96093707 33.671875,5.046875 L33.4570312,5.26171875 C34.0013048,5.49088656 34.6028613,5.81314896 35.2617188,6.22851562 C35.9205762,6.64388229 36.5937466,7.19530906 37.28125,7.8828125 C37.9401075,8.54166996 38.4700501,9.21484031 38.8710938,9.90234375 C39.2721374,10.5898472 39.5729157,11.2200492 39.7734375,11.7929688 C39.8307295,11.7356768 39.8808592,11.6783857 39.9238281,11.6210938 C39.9667971,11.5638018 40.002604,11.5208335 40.03125,11.4921875 Z" id="Pencil---simple-line-icons" fill="#FFC000"></path>
    </g>
</svg>