<?xml version="1.0" encoding="UTF-8"?>
<svg width="45px" height="45px" viewBox="0 0 45 45" version="1.1" xmlns="http://www.w3.org/2000/svg" xmlns:xlink="http://www.w3.org/1999/xlink">
    <!-- Generator: Sketch 51.3 (57544) - http://www.bohemiancoding.com/sketch -->
    <title>perfiles</title>
    <desc>Created with Sketch.</desc>
    <defs></defs>
    <g id="perfiles" stroke="none" stroke-width="1" fill="none" fill-rule="evenodd">
        <path d="M32.5546875,36.6289062 L33.7148438,37.2734375 C34.4882851,37.7031271 34.875,38.2617153 34.875,38.9492188 L34.875,42.4296875 C34.875,43.088545 34.6458356,43.6399717 34.1875,44.0839844 C33.7291644,44.527997 33.184899,44.75 32.5546875,44.75 L2.8203125,44.75 C2.19010102,44.75 1.64583563,44.527997 1.1875,44.0839844 C0.729164375,43.6399717 0.5,43.088545 0.5,42.4296875 L0.5,38.9492188 C0.5,38.3190073 0.886714883,37.7747419 1.66015625,37.3164062 L2.8203125,36.6289062 L11.7148438,31.8164062 C10.0820231,30.5273373 8.95052398,28.8086045 8.3203125,26.6601562 C7.69010102,24.511708 7.375,22.807298 7.375,21.546875 L7.375,15.7460938 C7.375,14.7721305 7.67577824,13.8053433 8.27734375,12.8457031 C8.87890926,11.8860629 9.6666618,11.0195351 10.640625,10.2460938 C11.6145882,9.47265238 12.7246031,8.84245035 13.9707031,8.35546875 C15.2168031,7.86848715 16.4700458,7.625 17.7304688,7.625 C19.0195377,7.625 20.2799418,7.86848715 21.5117188,8.35546875 C22.7434957,8.84245035 23.8391879,9.47265238 24.7988281,10.2460938 C25.7584683,11.0195351 26.5318981,11.8860629 27.1191406,12.8457031 C27.7063831,13.8053433 28,14.7721305 28,15.7460938 L28,21.546875 C28,22.9505279 27.7207059,24.6979062 27.1621094,26.7890625 C26.6035128,28.8802188 25.5221434,30.5703061 23.9179688,31.859375 L32.5546875,36.6289062 Z M32.125,42 L32.125,39.5507812 C32.0390621,39.4648433 31.9388027,39.3932295 31.8242188,39.3359375 L31.4804688,39.1640625 C31.4518228,39.1640625 31.4160158,39.1497397 31.3730469,39.1210938 C31.3300779,39.0924478 31.2799482,39.0638022 31.2226562,39.0351562 L22.5859375,34.265625 C22.1848938,34.0364572 21.85547,33.7285176 21.5976562,33.3417969 C21.3398425,32.9550762 21.1966147,32.5325544 21.1679688,32.0742188 C21.1106768,31.6158831 21.1751293,31.1718771 21.3613281,30.7421875 C21.547527,30.3124979 21.8268211,29.9544285 22.1992188,29.6679688 C23.3737038,28.7512975 24.1757791,27.4407637 24.6054688,25.7363281 C25.0351584,24.0318925 25.25,22.6354221 25.25,21.546875 L25.25,15.7460938 C25.25,14.7434846 24.4980544,13.5976627 22.9941406,12.3085938 C21.4902269,11.0195248 19.7356871,10.375 17.7304688,10.375 C15.7825423,10.375 14.0280026,11.0195248 12.4667969,12.3085938 C10.9055912,13.5976627 10.125,14.7434846 10.125,15.7460938 L10.125,21.546875 C10.125,22.6354221 10.3828099,24.0318925 10.8984375,25.7363281 C11.4140651,27.4407637 12.2591087,28.7512975 13.4335938,29.6679688 C13.7773455,29.9544285 14.0423168,30.3124979 14.2285156,30.7421875 C14.4147145,31.1718771 14.479167,31.6158831 14.421875,32.0742188 C14.393229,32.5325544 14.2500013,32.9550762 13.9921875,33.3417969 C13.7343737,33.7285176 13.4049499,34.0221344 13.0039062,34.2226562 L4.109375,39.078125 C4.08072902,39.078125 4.05208348,39.0852864 4.0234375,39.0996094 C3.99479152,39.1139324 3.96614598,39.1354165 3.9375,39.1640625 C3.82291609,39.1927085 3.70117252,39.2499996 3.57226562,39.3359375 L3.25,39.5507812 L3.25,42 L32.125,42 Z M42.1796875,29.796875 C42.1796875,29.796875 42.5664024,30.0117166 43.3398438,30.4414062 C44.1132851,30.8710959 44.5,31.4296841 44.5,32.1171875 L44.5,35.5546875 C44.5,36.213545 44.2708356,36.7649717 43.8125,37.2089844 C43.3541644,37.652997 42.809899,37.875 42.1796875,37.875 L37.625,37.875 C37.4531241,37.2734345 37.2740895,36.7434919 37.0878906,36.2851562 C36.9016918,35.8268206 36.6080749,35.4401057 36.2070312,35.125 L41.75,35.125 L41.75,32.6757812 C41.6640621,32.6184893 41.5638027,32.5540368 41.4492188,32.4824219 C41.3346348,32.4108069 41.2200527,32.3606772 41.1054688,32.3320312 C41.0768228,32.3033853 41.0410158,32.2819011 40.9980469,32.2675781 C40.9550779,32.2532551 40.9049482,32.231771 40.8476562,32.203125 L32.0820312,27.4335938 C31.6809876,27.2044259 31.3515638,26.8964863 31.09375,26.5097656 C30.8359362,26.1230449 30.6927085,25.7005231 30.6640625,25.2421875 C30.6067705,24.7838519 30.671223,24.3398459 30.8574219,23.9101562 C31.0436207,23.4804666 31.3229148,23.1223973 31.6953125,22.8359375 C32.8697975,21.8906203 33.693357,20.5657637 34.1660156,18.8613281 C34.6386742,17.1568925 34.875,15.7747449 34.875,14.7148438 L34.875,8.9140625 C34.875,7.88280734 34.1015702,6.7226627 32.5546875,5.43359375 C31.0078048,4.1445248 29.2317809,3.5 27.2265625,3.5 C26.2525993,3.5 25.3144576,3.65755051 24.4121094,3.97265625 C23.5097611,4.28776199 22.7005244,4.7174452 21.984375,5.26171875 C21.4401014,5.08984289 20.8671905,4.98958348 20.265625,4.9609375 C19.6640595,4.93229152 19.0768258,4.90364598 18.5039062,4.875 C19.5065154,3.70051496 20.795565,2.71224359 22.3710938,1.91015625 C23.9466225,1.10806891 25.5650959,0.70703125 27.2265625,0.70703125 C28.5156314,0.70703125 29.7831969,0.957679785 31.0292969,1.45898438 C32.2753969,1.96028896 33.3854118,2.59765238 34.359375,3.37109375 C35.3333382,4.14453512 36.1210907,5.0182243 36.7226562,5.9921875 C37.3242218,6.9661507 37.625,7.9400993 37.625,8.9140625 L37.625,14.7148438 C37.625,16.0898506 37.3242218,17.8300676 36.7226562,19.9355469 C36.1210907,22.0410262 35.0182372,23.723952 33.4140625,24.984375 L42.1796875,29.796875 Z" id="People---simple-line-icons" fill="#FFC000"></path>
    </g>
</svg>