<?xml version="1.0" encoding="UTF-8"?>
<svg width="45px" height="45px" viewBox="0 0 45 45" version="1.1" xmlns="http://www.w3.org/2000/svg" xmlns:xlink="http://www.w3.org/1999/xlink">
    <!-- Generator: Sketch 51.3 (57544) - http://www.bohemiancoding.com/sketch -->
    <title>gráfico</title>
    <desc>Created with Sketch.</desc>
    <defs></defs>
    <g id="gráfico" stroke="none" stroke-width="1" fill="none" fill-rule="evenodd">
        <path d="M25.25,4.74609375 C28.0573057,4.74609375 30.6354049,5.24022943 32.984375,6.22851562 C35.3333451,7.21680182 37.3600175,8.58462668 39.0644531,10.3320312 C40.7688887,12.0794358 42.1009067,14.1490766 43.0605469,16.5410156 C44.0201871,18.9329547 44.5,21.532538 44.5,24.3398438 C44.5,27.1471495 43.962896,29.7897012 42.8886719,32.2675781 C41.8144478,34.7454551 40.3535249,36.9081939 38.5058594,38.7558594 C36.6581939,40.6035249 34.4954551,42.0644478 32.0175781,43.1386719 C29.5397012,44.212896 26.8971495,44.75 24.0898438,44.75 C21.282538,44.75 18.6829547,44.2630257 16.2910156,43.2890625 C13.8990766,42.3150993 11.8294358,40.9615972 10.0820312,39.2285156 C8.33462668,37.495434 6.96680182,35.4329547 5.97851562,33.0410156 C4.99022943,30.6490766 4.49609375,28.0494932 4.49609375,25.2421875 C4.49609375,24.8697898 4.6321601,24.5475274 4.90429688,24.2753906 C5.17643365,24.0032538 5.49869605,23.8671875 5.87109375,23.8671875 C6.27213742,23.8671875 6.60156121,24.0032538 6.859375,24.2753906 C7.11718879,24.5475274 7.24609375,24.8697898 7.24609375,25.2421875 C7.24609375,27.6770955 7.66861557,29.9186096 8.51367188,31.9667969 C9.35872818,34.0149842 10.5331956,35.7838467 12.0371094,37.2734375 C13.5410231,38.7630283 15.3170471,39.9231729 17.3652344,40.7539062 C19.4134217,41.5846396 21.6549357,42 24.0898438,42 C26.5247518,42 28.8163955,41.5345099 30.9648438,40.6035156 C33.113292,39.6725214 34.9824139,38.4121173 36.5722656,36.8222656 C38.1621173,35.2324139 39.4225214,33.363292 40.3535156,31.2148438 C41.2845099,29.0663955 41.75,26.7747518 41.75,24.3398438 C41.75,21.9049357 41.3489623,19.6634217 40.546875,17.6152344 C39.7447877,15.5670471 38.6132886,13.7910231 37.1523438,12.2871094 C35.6913989,10.7831956 33.951182,9.60872818 31.9316406,8.76367188 C29.9120993,7.91861557 27.684908,7.49609375 25.25,7.49609375 C24.8489563,7.49609375 24.5195325,7.36718879 24.2617188,7.109375 C24.003905,6.85156121 23.875,6.52213742 23.875,6.12109375 C23.875,5.74869605 24.003905,5.42643365 24.2617188,5.15429688 C24.5195325,4.8821601 24.8489563,4.74609375 25.25,4.74609375 Z M21.125,20 C21.125,20.4010437 20.996095,20.7304675 20.7382812,20.9882812 C20.4804675,21.246095 20.1510437,21.375 19.75,21.375 L1.875,21.375 C1.5026023,21.375 1.1803399,21.246095 0.908203125,20.9882812 C0.636066348,20.7304675 0.5,20.4010437 0.5,20 C0.5,17.3359242 1.00129707,14.8294388 2.00390625,12.4804688 C3.00651543,10.1314987 4.37434029,8.09050346 6.10742187,6.35742187 C7.84050346,4.62434029 9.88149867,3.25651543 12.2304688,2.25390625 C14.5794388,1.25129707 17.0859242,0.75 19.75,0.75 C20.1510437,0.75 20.4804675,0.886066348 20.7382812,1.15820312 C20.996095,1.4303399 21.125,1.7526023 21.125,2.125 L21.125,20 Z M18.375,18.625 L18.375,3.54296875 C16.3697816,3.71484461 14.4863369,4.21614168 12.7246094,5.046875 C10.9628818,5.87760832 9.4088609,6.9661391 8.0625,8.3125 C6.7161391,9.6588609 5.62760832,11.2128818 4.796875,12.9746094 C3.96614168,14.7363369 3.46484461,16.6197816 3.29296875,18.625 L18.375,18.625 Z" id="Pie-chart---simple-line-icons" fill="#FFC000"></path>
    </g>
</svg>