<?xml version="1.0" encoding="UTF-8"?>
<svg width="45px" height="45px" viewBox="0 0 45 45" version="1.1" xmlns="http://www.w3.org/2000/svg" xmlns:xlink="http://www.w3.org/1999/xlink">
    <!-- Generator: Sketch 51.3 (57544) - http://www.bohemiancoding.com/sketch -->
    <title>libro abierto</title>
    <desc>Created with Sketch.</desc>
    <defs></defs>
    <g id="libro-abierto" stroke="none" stroke-width="1" fill="none" fill-rule="evenodd">
        <path d="M41.40625,0.8359375 C42.2083373,0.606769687 42.924476,0.735674648 43.5546875,1.22265625 C44.184899,1.70963785 44.5,2.35416266 44.5,3.15625 L44.5,36.5859375 C44.5,37.2734409 44.2708356,37.9108044 43.8125,38.4980469 C43.3541644,39.0852894 42.7955762,39.4648429 42.1367188,39.6367188 L23.9609375,44.578125 C23.6744777,44.6640629 23.3808609,44.721354 23.0800781,44.75 C22.7792954,44.778646 22.5143241,44.7929688 22.2851562,44.7929688 C21.9700505,44.7929688 21.6621109,44.7714846 21.3613281,44.7285156 C21.0605454,44.6855467 20.7955741,44.635417 20.5664062,44.578125 L2.86328125,39.6796875 C2.20442379,39.4791657 1.64583563,39.0852894 1.1875,38.4980469 C0.729164375,37.9108044 0.5,37.2734409 0.5,36.5859375 L0.5,3.15625 C0.5,2.35416266 0.815101016,1.70963785 1.4453125,1.22265625 C2.07552398,0.735674648 2.79166266,0.606769687 3.59375,0.8359375 L21.296875,5.734375 C21.5260428,5.79166695 21.8483052,5.8203125 22.2636719,5.8203125 C22.6790385,5.8203125 23.0013009,5.79166695 23.2304688,5.734375 L41.40625,0.8359375 Z M21.125,41.8710938 L21.125,8.484375 C21.0390621,8.484375 20.945964,8.47005223 20.8457031,8.44140625 C20.7454422,8.41276027 20.6523442,8.3984375 20.5664062,8.3984375 L3.25,3.5859375 L3.25,36.5859375 C3.25,36.6718754 3.28580693,36.7578121 3.35742188,36.84375 C3.42903682,36.9296879 3.4934893,36.986979 3.55078125,37.015625 L21.125,41.8710938 Z M41.75,36.5859375 L41.75,3.5859375 L23.9609375,8.3984375 L23.875,8.3984375 L23.875,41.7421875 L41.40625,37.015625 C41.463542,36.986979 41.5351558,36.9296879 41.6210938,36.84375 C41.7070317,36.7578121 41.75,36.6718754 41.75,36.5859375 Z M28.0859375,16.4765625 C27.7994777,16.4765625 27.527345,16.3906259 27.2695312,16.21875 C27.0117175,16.0468741 26.8398442,15.803387 26.7539062,15.4882812 C26.6679683,15.1158836 26.718098,14.7649756 26.9042969,14.4355469 C27.0904957,14.1061181 27.355467,13.8841152 27.6992188,13.7695312 L37.3242188,11.0625 C37.6966164,10.9765621 38.0475244,11.0266918 38.3769531,11.2128906 C38.7063819,11.3990895 38.9283848,11.6783836 39.0429688,12.0507812 C39.1289067,12.394533 39.078777,12.7311181 38.8925781,13.0605469 C38.7063793,13.3899756 38.441408,13.6119786 38.0976562,13.7265625 L28.4726562,16.4335938 C28.4153643,16.4622397 28.3509118,16.4765625 28.2792969,16.4765625 L28.0859375,16.4765625 Z M28.0859375,24.7265625 C27.7994777,24.7265625 27.527345,24.6406259 27.2695312,24.46875 C27.0117175,24.2968741 26.8398442,24.053387 26.7539062,23.7382812 C26.6679683,23.3658836 26.718098,23.0149756 26.9042969,22.6855469 C27.0904957,22.3561181 27.355467,22.1341152 27.6992188,22.0195312 L37.3242188,19.3125 C37.6966164,19.2265621 38.0475244,19.2766918 38.3769531,19.4628906 C38.7063819,19.6490895 38.9283848,19.9283836 39.0429688,20.3007812 C39.1289067,20.644533 39.078777,20.9811181 38.8925781,21.3105469 C38.7063793,21.6399756 38.441408,21.8619786 38.0976562,21.9765625 L28.4726562,24.6835938 C28.4153643,24.7122397 28.3509118,24.7265625 28.2792969,24.7265625 L28.0859375,24.7265625 Z M28.0859375,32.9765625 C27.7994777,32.9765625 27.527345,32.8906259 27.2695312,32.71875 C27.0117175,32.5468741 26.8398442,32.303387 26.7539062,31.9882813 C26.6679683,31.6158836 26.718098,31.2649756 26.9042969,30.9355469 C27.0904957,30.6061181 27.355467,30.3841152 27.6992188,30.2695313 L37.3242188,27.5625 C37.6966164,27.4765621 38.0475244,27.5266918 38.3769531,27.7128906 C38.7063819,27.8990895 38.9283848,28.1783836 39.0429688,28.5507813 C39.1289067,28.894533 39.078777,29.2311181 38.8925781,29.5605469 C38.7063793,29.8899756 38.441408,30.1119786 38.0976562,30.2265625 L28.4726562,32.9335938 C28.4153643,32.9622397 28.3509118,32.9765625 28.2792969,32.9765625 L28.0859375,32.9765625 Z M17.4726562,13.7695312 C17.816408,13.8841152 18.0813793,14.1061181 18.2675781,14.4355469 C18.453777,14.7649756 18.5039067,15.1158836 18.4179688,15.4882812 C18.3320308,15.803387 18.1601575,16.0468741 17.9023438,16.21875 C17.64453,16.3906259 17.3723973,16.4765625 17.0859375,16.4765625 L16.8925781,16.4765625 C16.8209632,16.4765625 16.7565107,16.4622397 16.6992188,16.4335938 L7.07421875,13.7265625 C6.73046703,13.6119786 6.46549572,13.3899756 6.27929688,13.0605469 C6.09309803,12.7311181 6.04296832,12.394533 6.12890625,12.0507812 C6.24349016,11.6783836 6.46549314,11.3990895 6.79492188,11.2128906 C7.12435061,11.0266918 7.47525855,10.9765621 7.84765625,11.0625 L17.4726562,13.7695312 Z M17.4726562,22.0195312 C17.816408,22.1341152 18.0813793,22.3561181 18.2675781,22.6855469 C18.453777,23.0149756 18.5039067,23.3658836 18.4179688,23.7382812 C18.3320308,24.053387 18.1601575,24.2968741 17.9023438,24.46875 C17.64453,24.6406259 17.3723973,24.7265625 17.0859375,24.7265625 L16.8925781,24.7265625 C16.8209632,24.7265625 16.7565107,24.7122397 16.6992188,24.6835938 L7.07421875,21.9765625 C6.73046703,21.8619786 6.46549572,21.6399756 6.27929688,21.3105469 C6.09309803,20.9811181 6.04296832,20.644533 6.12890625,20.3007812 C6.24349016,19.9283836 6.46549314,19.6490895 6.79492188,19.4628906 C7.12435061,19.2766918 7.47525855,19.2265621 7.84765625,19.3125 L17.4726562,22.0195312 Z M17.4726562,30.2695313 C17.816408,30.3841152 18.0813793,30.6061181 18.2675781,30.9355469 C18.453777,31.2649756 18.5039067,31.6158836 18.4179688,31.9882813 C18.3320308,32.303387 18.1601575,32.5468741 17.9023438,32.71875 C17.64453,32.8906259 17.3723973,32.9765625 17.0859375,32.9765625 C17.0286455,32.9765625 16.9641931,32.9765625 16.8925781,32.9765625 C16.8209632,32.9765625 16.7565107,32.9622397 16.6992188,32.9335938 L7.07421875,30.2265625 C6.73046703,30.1119786 6.46549572,29.8899756 6.27929688,29.5605469 C6.09309803,29.2311181 6.04296832,28.894533 6.12890625,28.5507813 C6.24349016,28.1783836 6.46549314,27.8990895 6.79492188,27.7128906 C7.12435061,27.5266918 7.47525855,27.4765621 7.84765625,27.5625 L17.4726562,30.2695313 Z" id="Book-open---simple-line-icons" fill="#FFC000"></path>
    </g>
</svg>