<?xml version="1.0" encoding="UTF-8"?>
<svg width="45px" height="45px" viewBox="0 0 45 45" version="1.1" xmlns="http://www.w3.org/2000/svg" xmlns:xlink="http://www.w3.org/1999/xlink">
    <!-- Generator: Sketch 51.3 (57544) - http://www.bohemiancoding.com/sketch -->
    <title>rompecabezas</title>
    <desc>Created with Sketch.</desc>
    <defs></defs>
    <g id="rompecabezas" stroke="none" stroke-width="1" fill="none" fill-rule="evenodd">
        <path d="M22.5,44.75 C22.0703104,44.75 21.6549499,44.6712247 21.2539062,44.5136719 C20.8528626,44.356119 20.4947932,44.1197932 20.1796875,43.8046875 L1.4453125,25.0273438 C0.815101016,24.3971323 0.5,23.6308639 0.5,22.7285156 C0.5,21.8261674 0.815101016,21.059899 1.4453125,20.4296875 L8.3203125,13.5546875 C8.52083434,13.3541657 8.77148287,13.2252607 9.07226562,13.1679688 C9.37304838,13.1106768 9.65234246,13.1536451 9.91015625,13.296875 C10.16797,13.4401049 10.3684889,13.6477851 10.5117188,13.9199219 C10.6549486,14.1920587 10.697917,14.4713527 10.640625,14.7578125 C10.583333,14.9583343 10.5475261,15.137369 10.5332031,15.2949219 C10.5188801,15.4524747 10.5117188,15.6028639 10.5117188,15.7460938 C10.5117188,17.2643305 11.0488228,18.5677029 12.1230469,19.65625 C13.197271,20.7447971 14.4791592,21.2890625 15.96875,21.2890625 C17.4869868,21.2890625 18.7402294,20.7447971 19.7285156,19.65625 C20.7168018,18.5677029 21.2109375,17.2643305 21.2109375,15.7460938 C21.2109375,14.256503 20.7168018,12.9746147 19.7285156,11.9003906 C18.7402294,10.8261665 17.4869868,10.2890625 15.96875,10.2890625 C15.8255201,10.2890625 15.675131,10.2962239 15.5175781,10.3105469 C15.3600253,10.3248699 15.1809906,10.3606768 14.9804688,10.4179688 C14.694009,10.4752607 14.4147149,10.4322924 14.1425781,10.2890625 C13.8704413,10.1458326 13.6627611,9.94531379 13.5195312,9.6875 C13.4049473,9.42968621 13.3691404,9.15039213 13.4121094,8.84960938 C13.4550783,8.54882662 13.5768219,8.29817809 13.7773438,8.09765625 L20.1796875,1.65234375 C20.809899,1.05077824 21.5833287,0.75 22.5,0.75 C23.4166713,0.75 24.190101,1.05077824 24.8203125,1.65234375 L29.5039062,6.37890625 C29.9908879,4.83202352 30.8932226,3.56445807 32.2109375,2.57617188 C33.5286524,1.58788568 35.0182209,1.09375 36.6796875,1.09375 C38.7708438,1.09375 40.5540291,1.83853422 42.0292969,3.328125 C43.5045647,4.81771578 44.2421875,6.59373969 44.2421875,8.65625 C44.2421875,10.3463626 43.7480518,11.8502538 42.7597656,13.1679688 C41.7714794,14.4856837 40.5182368,15.3880184 39,15.875 L43.5546875,20.4296875 C44.184899,21.059899 44.5,21.8261674 44.5,22.7285156 C44.5,23.6308639 44.184899,24.3971323 43.5546875,25.0273438 L24.8203125,43.8046875 C24.5052068,44.1197932 24.1471374,44.356119 23.7460938,44.5136719 C23.3450501,44.6712247 22.9296896,44.75 22.5,44.75 Z M8.01953125,17.7226562 L3.37890625,22.3632812 C3.26432234,22.4778652 3.21419264,22.6067701 3.22851562,22.75 C3.24283861,22.8932299 3.29296832,23.0078121 3.37890625,23.09375 L22.1132812,41.8710938 C22.2565111,41.9856777 22.3854161,42.0429688 22.5,42.0429688 C22.6145839,42.0429688 22.7434889,41.9856777 22.8867188,41.8710938 L41.6210938,23.09375 C41.7070317,23.0078121 41.75,22.8932299 41.75,22.75 C41.75,22.6067701 41.7070317,22.4778652 41.6210938,22.3632812 L35.0039062,15.7460938 C34.8033844,15.5455719 34.6744795,15.3020848 34.6171875,15.015625 C34.5598955,14.7291652 34.6028639,14.4570325 34.7460938,14.1992187 C34.8606777,13.941405 35.0468737,13.7408861 35.3046875,13.5976562 C35.5625013,13.4544264 35.834634,13.3971353 36.1210938,13.4257812 L36.3359375,13.4257812 C36.3932295,13.4544272 36.4505205,13.46875 36.5078125,13.46875 C36.5651045,13.46875 36.6223955,13.46875 36.6796875,13.46875 C38.0260484,13.46875 39.1647089,13.0032599 40.0957031,12.0722656 C41.0266974,11.1412714 41.4921875,10.0026109 41.4921875,8.65625 C41.4921875,7.33853508 41.0266974,6.20703598 40.0957031,5.26171875 C39.1647089,4.31640152 38.0260484,3.84375 36.6796875,3.84375 C35.3619726,3.84375 34.2304735,4.31640152 33.2851562,5.26171875 C32.339839,6.20703598 31.8671875,7.33853508 31.8671875,8.65625 C31.8671875,8.71354195 31.8743489,8.77083305 31.8886719,8.828125 C31.9029949,8.88541695 31.9101562,8.94270805 31.9101562,9 L31.953125,9.2578125 C31.981771,9.54427227 31.9244799,9.81640496 31.78125,10.0742188 C31.6380201,10.3320325 31.4375013,10.5182286 31.1796875,10.6328125 C30.9218737,10.7473964 30.649741,10.7832033 30.3632812,10.7402344 C30.0768215,10.6972654 29.8333343,10.5755218 29.6328125,10.375 L22.8867188,3.62890625 C22.7434889,3.48567637 22.6145839,3.4140625 22.5,3.4140625 C22.3854161,3.4140625 22.2565111,3.48567637 22.1132812,3.62890625 L17.9453125,7.796875 C19.750009,8.22656465 21.2037705,9.17902908 22.3066406,10.6542969 C23.4095107,12.1295647 23.9609375,13.8268133 23.9609375,15.7460938 C23.9609375,18.0091259 23.1946691,19.9570231 21.6621094,21.5898438 C20.1295496,23.2226644 18.2317821,24.0390625 15.96875,24.0390625 C14.0494696,24.0390625 12.3522209,23.437506 10.8769531,22.234375 C9.40168533,21.031244 8.4492209,19.5273528 8.01953125,17.7226562 Z" id="Puzzle---simple-line-icons" fill="#FFC000"></path>
    </g>
</svg>