<?xml version="1.0" encoding="UTF-8" standalone="no"?>
<svg width="20px" height="21px" viewBox="0 0 20 21" version="1.1" xmlns="http://www.w3.org/2000/svg" xmlns:xlink="http://www.w3.org/1999/xlink">
    <!-- Generator: Sketch 50.2 (55047) - http://www.bohemiancoding.com/sketch -->
    <title></title>
    <desc>Created with Sketch.</desc>
    <defs></defs>
    <g id="Page-1" stroke="none" stroke-width="1" fill="none" fill-rule="evenodd">
        <g id="Contacto---D" transform="translate(-400.000000, -452.000000)" fill="#7CA44E">
            <g id="Group-8" transform="translate(72.000000, 369.000000)">
                <g id="Group-6" transform="translate(48.000000, 72.000000)">
                    <path d="M287.984,26.616 L296.984,17.616 L295.568,16.152 L287.984,23.76 L284.432,20.184 L283.016,21.6 L287.984,26.616 Z M290,11.616 C291.824009,11.616 293.511992,12.0719954 295.064,12.984 C296.568008,13.8480043 297.751996,15.0319925 298.616,16.536 C299.528005,18.0880078 299.984,19.7759909 299.984,21.6 C299.984,23.4240091 299.528005,25.1119922 298.616,26.664 C297.751996,28.1680075 296.568008,29.3519957 295.064,30.216 C293.511992,31.1280046 291.824009,31.584 290,31.584 C288.175991,31.584 286.488008,31.1280046 284.936,30.216 C283.431992,29.3359956 282.248004,28.1440075 281.384,26.64 C280.471995,25.0879922 280.016,23.408009 280.016,21.6 C280.016,19.791991 280.471995,18.1120078 281.384,16.56 C282.264004,15.0559925 283.455992,13.8640044 284.96,12.984 C286.512008,12.0719954 288.191991,11.616 290,11.616 Z" id=""></path>
                </g>
            </g>
        </g>
    </g>
</svg>