<svg width="20" height="21" viewBox="0 0 20 21" xmlns="http://www.w3.org/2000/svg"><title></title><path d="M7.984 15.616l9-9-1.416-1.464-7.584 7.608-3.552-3.576L3.016 10.6l4.968 5.016zM10 .616c1.824 0 3.512.456 5.064 1.368a9.463 9.463 0 0 1 3.552 3.552 9.819 9.819 0 0 1 1.368 5.064 9.819 9.819 0 0 1-1.368 5.064 9.463 9.463 0 0 1-3.552 3.552A9.819 9.819 0 0 1 10 20.584a9.819 9.819 0 0 1-5.064-1.368 9.642 9.642 0 0 1-3.552-3.576A9.775 9.775 0 0 1 .016 10.6c0-1.808.456-3.488 1.368-5.04A9.826 9.826 0 0 1 4.96 1.984 9.775 9.775 0 0 1 10 .616z" fill="#7CA44E" fill-rule="evenodd"/></svg>