<?xml version="1.0" encoding="UTF-8"?>
<svg width="150px" height="39px" viewBox="0 0 150 39" version="1.1" xmlns="http://www.w3.org/2000/svg" xmlns:xlink="http://www.w3.org/1999/xlink">
    <!-- Generator: Sketch 51.3 (57544) - http://www.bohemiancoding.com/sketch -->
    <title>Group</title>
    <desc>Created with Sketch.</desc>
    <defs></defs>
    <g id="Page-19" stroke="none" stroke-width="1" fill="none" fill-rule="evenodd">
        <g id="Manual-de-marca-ABS_030818_V2" transform="translate(-310.000000, -234.000000)">
            <g id="Group" transform="translate(310.000000, 234.000000)">
                <g id="Group-1243" transform="translate(0.000000, 0.197000)">
                    <path d="M19.7508,38.5616 C14.6498,38.5616 9.8548,36.5756 6.2478,32.9686 C2.6408,29.3616 0.6548,24.5666 0.6548,19.4656 C0.6548,14.3656 2.6408,9.5696 6.2478,5.9636 C9.8548,2.3566 14.6498,0.3706 19.7508,0.3706 C24.8518,0.3706 29.6468,2.3566 33.2538,5.9636 C36.8598,9.5696 38.8468,14.3656 38.8468,19.4656 C38.8468,24.5666 36.8598,29.3616 33.2538,32.9686 C29.6468,36.5756 24.8518,38.5616 19.7508,38.5616" id="Fill-1231" fill="#CAAF00"></path>
                    <path d="M35.8155,19.4659 C35.8155,28.3569 28.6085,35.5639 19.7175,35.5639 C10.8265,35.5639 3.6185,28.3569 3.6185,19.4659 C3.6185,10.5749 10.8265,3.3679 19.7175,3.3679 C28.6085,3.3679 35.8155,10.5749 35.8155,19.4659" id="Fill-1233" fill="#0C4693"></path>
                    <path d="M8.0836,15.7093 C5.7146,24.1833 11.7286,28.3303 11.7286,28.3303 L11.7286,26.3253 C11.7286,26.3253 8.0376,21.9053 9.7696,16.5753 L16.8766,20.5393 L16.8766,31.0183 L18.6996,31.7473 L18.6996,7.3713 C18.6996,7.3713 10.3636,7.5543 8.0836,15.7093 Z M16.8766,17.7593 L10.6806,14.5703 C10.6806,14.5703 12.7306,10.1963 16.8766,9.8773 L16.8766,17.7593 Z" id="Fill-1235" fill="#FFFFFF"></path>
                    <path d="M18.8362,31.9489 L16.7402,31.1109 L16.7402,20.6189 L9.8492,16.7759 C8.2832,21.9049 11.7972,26.1939 11.8332,26.2379 L11.8652,26.2759 L11.8652,28.5899 L11.6512,28.4419 C11.5882,28.3989 10.1082,27.3639 8.8992,25.2659 C7.7842,23.3309 6.7152,20.0959 7.9522,15.6729 C9.1442,11.4089 12.0022,9.3409 14.1902,8.3579 C16.5572,7.2939 18.6752,7.2349 18.6962,7.2349 L18.8362,7.2319 L18.8362,31.9489 Z M17.0142,30.9259 L18.5632,31.5449 L18.5632,7.5149 C18.0592,7.5479 16.2662,7.7219 14.2932,8.6109 C12.1622,9.5719 9.3772,11.5889 8.2152,15.7459 C7.0042,20.0779 8.0472,23.2399 9.1362,25.1289 C10.0482,26.7119 11.1382,27.6879 11.5922,28.0539 L11.5922,26.3739 C11.4202,26.1599 10.6142,25.1079 9.9732,23.4999 C9.3202,21.8629 8.7322,19.3249 9.6392,16.5329 L9.6912,16.3749 L17.0142,20.4589 L17.0142,30.9259 Z M17.0142,17.9839 L10.5012,14.6319 L10.5572,14.5119 C10.5782,14.4679 12.6892,10.0629 16.8662,9.7409 L17.0142,9.7299 L17.0142,17.9839 Z M10.8642,14.5109 L16.7402,17.5359 L16.7402,10.0269 C13.1912,10.3889 11.2212,13.8269 10.8642,14.5109 Z" id="Fill-1237" fill="#FFFFFF"></path>
                    <path d="M27.7663,17.5318 L31.4563,15.8458 C31.4563,15.8458 28.8143,7.6908 20.1123,7.3258 L20.1123,31.7018 C20.1123,31.7018 31.0463,31.1998 32.0493,21.0858 L27.7663,17.5318 Z M22.2073,9.9688 C26.7643,9.9688 28.8143,14.7978 28.8143,14.7978 L22.2073,17.6228 L22.2073,9.9688 Z M22.2533,29.1958 L22.2533,20.4478 L25.5793,18.5338 L29.4063,21.8598 C29.1783,28.4208 22.2533,29.1958 22.2533,29.1958 Z" id="Fill-1239" fill="#FFFFFF"></path>
                    <path d="M19.9753,31.8445 L19.9753,7.1835 L20.1173,7.1895 C24.6623,7.3795 27.5393,9.7115 29.1523,11.6345 C30.8983,13.7155 31.5803,15.7835 31.5873,15.8035 L31.6243,15.9195 L28.0213,17.5655 L32.1923,21.0265 L32.1853,21.0985 C31.6613,26.3865 28.4043,29.0265 25.7643,30.3095 C22.9133,31.6955 20.1463,31.8365 20.1183,31.8375 L19.9753,31.8445 Z M20.2483,7.4695 L20.2483,31.5545 C20.8453,31.5055 23.2183,31.2455 25.6533,30.0595 C27.2923,29.2615 28.6393,28.2055 29.6573,26.9225 C30.9153,25.3355 31.6713,23.3925 31.9053,21.1445 L27.5113,17.4975 L31.2863,15.7735 C31.1183,15.3165 30.4173,13.5655 28.9363,11.8025 C27.3763,9.9455 24.6073,7.6975 20.2483,7.4695 Z M22.1163,29.3485 L22.1163,20.3685 L25.5953,18.3675 L29.5453,21.7995 L29.5433,21.8645 C29.4233,25.3165 27.4483,27.1645 25.8123,28.1065 C24.0483,29.1225 22.3403,29.3235 22.2683,29.3315 L22.1163,29.3485 Z M22.3903,20.5265 L22.3903,29.0375 C22.8473,28.9645 24.2653,28.6845 25.6843,27.8655 C27.9523,26.5555 29.1573,24.5555 29.2673,21.9205 L25.5633,18.7015 L22.3903,20.5265 Z M22.0713,17.8295 L22.0713,9.8315 L22.2083,9.8315 C24.6123,9.8315 26.3153,11.1695 27.3213,12.2925 C28.4063,13.5025 28.9193,14.6945 28.9403,14.7445 L28.9933,14.8705 L22.0713,17.8295 Z M22.3443,10.1065 L22.3443,17.4155 L28.6313,14.7275 C28.2753,13.9875 26.2603,10.1935 22.3443,10.1065 Z" id="Fill-1241" fill="#FFFFFF"></path>
                </g>
                <path d="M45.0811,14.6376 L45.1971,14.6376 L48.6691,22.2546 L46.7131,22.2546 L46.2971,21.2356 L43.9121,21.2356 L43.4841,22.2546 L41.5971,22.2546 L45.0811,14.6376 Z M45.8101,19.8696 L45.1151,18.2146 L44.4331,19.8696 L45.8101,19.8696 Z" id="Fill-1244" fill="#0C4693"></path>
                <polygon id="Fill-1245" fill="#0C4693" points="52.3628 19.1867 51.8188 22.2537 49.9788 22.2537 51.4948 14.6377 51.6098 14.6377 54.3878 19.1407 57.1438 14.6377 57.2588 14.6377 58.7868 22.2537 56.9928 22.2537 56.4138 19.1867 54.4578 22.3697 54.3418 22.3697"></polygon>
                <polygon id="Fill-1246" fill="#0C4693" points="60.5245 14.7533 65.2695 14.7533 65.2695 16.2353 62.3535 16.2353 62.3535 17.6933 64.3675 17.6933 64.3675 19.1633 62.3535 19.1633 62.3535 20.7603 65.4095 20.7603 65.4095 22.2543 60.5245 22.2543"></polygon>
                <path d="M67.239,14.7533 L69.67,14.7533 C71.105,14.7533 72.725,15.0773 72.725,17.2533 C72.725,18.5843 72.124,19.2563 71.371,19.5223 L73.258,22.2543 L71.047,22.2543 L69.473,19.7763 L69.067,19.7763 L69.067,22.2543 L67.239,22.2543 L67.239,14.7533 Z M69.183,18.3303 C70.121,18.3303 70.839,18.2143 70.839,17.2533 C70.839,16.1653 69.982,16.1883 69.38,16.1883 L69.067,16.1883 L69.067,18.3303 L69.183,18.3303 Z" id="Fill-1247" fill="#0C4693"></path>
                <polygon id="Fill-1249" fill="#0C4693" points="74.844 22.254 76.673 22.254 76.673 14.753 74.844 14.753"></polygon>
                <path d="M78.5377,18.5154 C78.5377,16.2574 80.1467,14.6374 82.5427,14.6374 C83.4687,14.6374 84.1747,14.8574 84.6377,15.1354 L84.6377,16.8944 C84.0367,16.4894 83.2947,16.2814 82.6357,16.2814 C81.3497,16.2814 80.4237,17.1954 80.4237,18.4924 C80.4237,19.9044 81.3737,20.7144 82.6697,20.7144 C83.7237,20.7144 84.4177,20.3214 84.7527,20.0894 L84.7527,21.8834 C84.3367,22.1504 83.5497,22.3694 82.5777,22.3694 C79.9957,22.3694 78.5377,20.6564 78.5377,18.5154" id="Fill-1250" fill="#0C4693"></path>
                <path d="M89.5924,14.6376 L89.7084,14.6376 L93.1814,22.2546 L91.2254,22.2546 L90.8084,21.2356 L88.4234,21.2356 L87.9954,22.2546 L86.1084,22.2546 L89.5924,14.6376 Z M90.3224,19.8696 L89.6274,18.2146 L88.9444,19.8696 L90.3224,19.8696 Z" id="Fill-1252" fill="#0C4693"></path>
                <polygon id="Fill-1253" fill="#0C4693" points="96.4922 18.3527 96.4922 22.2537 94.7102 22.2537 94.7102 14.6377 94.8252 14.6377 99.4672 18.6537 99.4792 14.7537 101.2612 14.7537 101.2612 22.3697 101.1452 22.3697"></polygon>
                <g id="Group-1258" transform="translate(106.000000, 14.197000)" fill="#0C4693">
                    <path d="M0.4251,0.5563 L2.6121,0.5563 C4.0131,0.5563 5.4491,1.0073 5.4491,2.6743 C5.4491,3.4383 5.1241,3.8323 4.7661,3.9713 C5.2061,4.1093 6.0621,4.5843 6.0621,5.8923 C6.0621,7.7333 4.4881,8.0573 3.0641,8.0573 L0.4251,8.0573 L0.4251,0.5563 Z M2.5431,3.5543 C3.0531,3.5543 3.5961,3.4613 3.5961,2.8013 C3.5961,2.1533 3.1911,2.0033 2.5431,2.0033 L2.2541,2.0033 L2.2541,3.5543 L2.5431,3.5543 Z M3.0641,6.5993 C3.5501,6.5993 4.1991,6.5523 4.1991,5.8223 C4.1991,4.9783 3.4461,4.9783 3.0641,4.9783 L2.2541,4.9783 L2.2541,6.5993 L3.0641,6.5993 Z" id="Fill-1254"></path>
                    <path d="M7.8459,0.5563 L10.2769,0.5563 C11.7119,0.5563 13.3329,0.8803 13.3329,3.0563 C13.3329,4.3873 12.7309,5.0593 11.9779,5.3253 L13.8649,8.0573 L11.6539,8.0573 L10.0799,5.5793 L9.6749,5.5793 L9.6749,8.0573 L7.8459,8.0573 L7.8459,0.5563 Z M9.7909,4.1333 C10.7279,4.1333 11.4459,4.0173 11.4459,3.0563 C11.4459,1.9683 10.5899,1.9913 9.9869,1.9913 L9.6749,1.9913 L9.6749,4.1333 L9.7909,4.1333 Z" id="Fill-1256"></path>
                </g>
                <polygon id="Fill-1259" fill="#0C4693" points="121.451 22.254 123.28 22.254 123.28 14.753 121.451 14.753"></polygon>
                <polygon id="Fill-1260" fill="#0C4693" points="126.9964 16.235 125.0164 16.235 125.0164 14.753 130.7934 14.753 130.7934 16.235 128.8254 16.235 128.8254 22.254 126.9964 22.254"></polygon>
                <polygon id="Fill-1261" fill="#0C4693" points="132.53 22.254 134.359 22.254 134.359 14.753 132.53 14.753"></polygon>
                <path d="M136.3613,21.9185 L136.3613,20.1815 C136.8823,20.5405 137.6113,20.8425 138.3753,20.8425 C138.9433,20.8425 139.2433,20.5985 139.2433,20.2285 C139.2433,19.0355 136.4073,19.4185 136.4073,16.8605 C136.4073,15.5055 137.3103,14.6375 138.9313,14.6375 C139.7873,14.6375 140.4593,14.8575 140.7253,14.9955 L140.7253,16.7095 C140.2733,16.4195 139.6143,16.1535 139.0583,16.1535 C138.5263,16.1535 138.2603,16.4085 138.2603,16.7785 C138.2603,17.9485 141.1073,17.5545 141.1073,20.0775 C141.1073,21.5135 140.1693,22.3695 138.4333,22.3695 C137.4953,22.3695 136.7783,22.1145 136.3613,21.9185" id="Fill-1262" fill="#0C4693"></path>
                <polygon id="Fill-1264" fill="#0C4693" points="142.9021 14.7533 144.7311 14.7533 144.7311 17.6933 147.5321 17.6933 147.5321 14.7533 149.3611 14.7533 149.3611 22.2543 147.5321 22.2543 147.5321 19.1863 144.7311 19.1863 144.7311 22.2543 142.9021 22.2543"></polygon>
                <g id="Group-1269" transform="translate(42.000000, 25.197000)" fill="#706F6F">
                    <path d="M0.6476,7.1218 L0.6476,5.5298 C1.1256,5.8588 1.7946,6.1348 2.4946,6.1348 C3.0146,6.1348 3.2906,5.9118 3.2906,5.5718 C3.2906,4.4788 0.6896,4.8288 0.6896,2.4828 C0.6896,1.2418 1.5186,0.4458 3.0046,0.4458 C3.7896,0.4458 4.4056,0.6468 4.6496,0.7748 L4.6496,2.3458 C4.2356,2.0798 3.6306,1.8358 3.1216,1.8358 C2.6326,1.8358 2.3886,2.0688 2.3886,2.4098 C2.3886,3.4818 4.9996,3.1198 4.9996,5.4338 C4.9996,6.7498 4.1396,7.5358 2.5486,7.5358 C1.6886,7.5358 1.0306,7.3018 0.6476,7.1218" id="Fill-1265"></path>
                    <path d="M6.3252,4.0016 C6.3252,1.9316 7.8012,0.4456 9.9982,0.4456 C10.8462,0.4456 11.4942,0.6466 11.9192,0.9016 L11.9192,2.5156 C11.3672,2.1436 10.6882,1.9526 10.0832,1.9526 C8.9042,1.9526 8.0562,2.7906 8.0562,3.9806 C8.0562,5.2756 8.9262,6.0186 10.1142,6.0186 C11.0812,6.0186 11.7172,5.6566 12.0252,5.4446 L12.0252,7.0906 C11.6432,7.3346 10.9212,7.5356 10.0302,7.5356 C7.6632,7.5356 6.3252,5.9646 6.3252,4.0016" id="Fill-1267"></path>
                </g>
                <polygon id="Fill-1270" fill="#706F6F" points="55.8281 25.7487 57.5051 25.7487 57.5051 28.4447 60.0731 28.4447 60.0731 25.7487 61.7501 25.7487 61.7501 32.6267 60.0731 32.6267 60.0731 29.8137 57.5051 29.8137 57.5051 32.6267 55.8281 32.6267"></polygon>
                <g id="Group-1275" transform="translate(63.000000, 25.197000)" fill="#706F6F">
                    <path d="M0.4263,3.9906 C0.4263,1.8786 1.8703,0.4456 4.0663,0.4456 C6.2113,0.4456 7.6433,1.8786 7.6433,3.9696 C7.6433,6.0396 6.1893,7.5356 4.0033,7.5356 C1.8373,7.5356 0.4263,6.0706 0.4263,3.9906 M5.9133,4.0016 C5.9133,2.6646 5.0113,1.9526 4.0343,1.9526 C3.0053,1.9526 2.1563,2.6746 2.1563,3.9696 C2.1563,5.3276 3.0263,6.0076 4.0563,6.0076 C5.0543,6.0076 5.9133,5.3176 5.9133,4.0016" id="Fill-1271"></path>
                    <path d="M9.0321,3.9906 C9.0321,1.8786 10.4761,0.4456 12.6721,0.4456 C14.8171,0.4456 16.2501,1.8786 16.2501,3.9696 C16.2501,6.0396 14.7961,7.5356 12.6091,7.5356 C10.4441,7.5356 9.0321,6.0706 9.0321,3.9906 M14.5201,4.0016 C14.5201,2.6646 13.6181,1.9526 12.6411,1.9526 C11.6111,1.9526 10.7631,2.6746 10.7631,3.9696 C10.7631,5.3276 11.6331,6.0076 12.6621,6.0076 C13.6601,6.0076 14.5201,5.3176 14.5201,4.0016" id="Fill-1273"></path>
                </g>
                <polygon id="Fill-1276" fill="#706F6F" points="80.9251 25.7487 82.6021 25.7487 82.6021 31.2577 85.5101 31.2577 85.5101 32.6267 80.9251 32.6267"></polygon>
            </g>
        </g>
    </g>
</svg>