<svg width="45" height="45" viewBox="0 0 45 45" xmlns="http://www.w3.org/2000/svg"><title>rompecabezas</title><path d="M22.5 44.75c-.43 0-.845-.079-1.246-.236a3.121 3.121 0 0 1-1.074-.71L1.445 25.028C.815 24.397.5 23.631.5 22.73c0-.903.315-1.67.945-2.3l6.875-6.874c.2-.2.451-.33.752-.387.301-.057.58-.014.838.129.258.143.458.35.602.623.143.272.186.551.129.838-.058.2-.093.38-.108.537a4.99 4.99 0 0 0-.021.451c0 1.518.537 2.822 1.611 3.91 1.074 1.089 2.356 1.633 3.846 1.633 1.518 0 2.771-.544 3.76-1.633.988-1.088 1.482-2.392 1.482-3.91 0-1.49-.494-2.771-1.482-3.846-.989-1.074-2.242-1.61-3.76-1.61a4.99 4.99 0 0 0-.451.02 2.96 2.96 0 0 0-.538.108 1.233 1.233 0 0 1-.837-.129 1.486 1.486 0 0 1-.623-.601 1.5 1.5 0 0 1-.108-.838c.043-.301.165-.552.365-.752l6.403-6.446c.63-.601 1.403-.902 2.32-.902.917 0 1.69.3 2.32.902l4.684 4.727c.487-1.547 1.39-2.815 2.707-3.803 1.318-.988 2.807-1.482 4.469-1.482 2.09 0 3.874.745 5.35 2.234 1.475 1.49 2.212 3.266 2.212 5.328 0 1.69-.494 3.194-1.482 4.512-.989 1.318-2.242 2.22-3.76 2.707l4.555 4.555c.63.63.945 1.396.945 2.299 0 .902-.315 1.668-.945 2.298L24.82 43.805a3.121 3.121 0 0 1-1.074.709 3.379 3.379 0 0 1-1.246.236zM8.02 17.723l-4.641 4.64a.464.464 0 0 0-.15.387.545.545 0 0 0 .15.344L22.113 41.87c.144.115.272.172.387.172.115 0 .243-.057.387-.172L41.62 23.094a.465.465 0 0 0 .129-.344.628.628 0 0 0-.129-.387l-6.617-6.617c-.2-.2-.33-.444-.387-.73a1.162 1.162 0 0 1 .13-.817c.114-.258.3-.458.558-.601.258-.144.53-.2.816-.172h.215a.381.381 0 0 0 .172.043h.172c1.346 0 2.485-.466 3.416-1.397.93-.93 1.396-2.07 1.396-3.416 0-1.317-.465-2.449-1.396-3.394-.931-.946-2.07-1.418-3.416-1.418-1.318 0-2.45.472-3.395 1.418-.945.945-1.418 2.077-1.418 3.394 0 .058.007.115.022.172A.706.706 0 0 1 31.91 9l.043.258c.029.286-.029.558-.172.816a1.262 1.262 0 0 1-.601.559c-.258.114-.53.15-.817.107a1.273 1.273 0 0 1-.73-.365l-6.746-6.746c-.144-.143-.272-.215-.387-.215-.115 0-.243.072-.387.215l-4.168 4.168c1.805.43 3.259 1.382 4.362 2.857 1.103 1.476 1.654 3.173 1.654 5.092 0 2.263-.766 4.211-2.299 5.844-1.532 1.633-3.43 2.45-5.693 2.45-1.92 0-3.617-.602-5.092-1.806-1.475-1.203-2.428-2.707-2.857-4.511z" fill="#FFC000" fill-rule="evenodd"/></svg>