<svg width="45" height="45" viewBox="0 0 45 45" xmlns="http://www.w3.org/2000/svg"><title>certificación</title><path d="M44.371 36.844c.143.229.2.48.172.752a1.496 1.496 0 0 1-.3.752c-.144.2-.345.35-.602.45-.258.101-.516.108-.774.022l-6.918-1.547-2.363 6.575a1.24 1.24 0 0 1-.451.623c-.215.157-.451.25-.71.279h-.128c-.258 0-.494-.064-.71-.193a1.28 1.28 0 0 1-.493-.537l-7.176-13.106A12.08 12.08 0 0 1 22.5 31a13.94 13.94 0 0 1-1.547-.086L13.906 44.02a1.28 1.28 0 0 1-.494.537 1.352 1.352 0 0 1-.709.193h-.086a1.498 1.498 0 0 1-.752-.28 1.24 1.24 0 0 1-.45-.622L9.05 37.273 2.133 38.82a1.107 1.107 0 0 1-.774-.021 1.204 1.204 0 0 1-.601-.494 1.267 1.267 0 0 1-.301-.71 1.153 1.153 0 0 1 .172-.751l8.078-14.739c-.43-.945-.76-1.94-.988-2.986a15.11 15.11 0 0 1-.344-3.244c0-2.091.394-4.053 1.182-5.887A15.248 15.248 0 0 1 11.8 5.176a15.248 15.248 0 0 1 4.812-3.244C18.447 1.144 20.41.75 22.5.75c2.091 0 4.053.394 5.887 1.182 1.833.787 3.43 1.869 4.79 3.244a15.742 15.742 0 0 1 3.245 4.812c.802 1.834 1.203 3.796 1.203 5.887 0 1.089-.115 2.141-.344 3.158a17.204 17.204 0 0 1-.945 2.944l8.035 14.867zm-31.41 3.136l5.156-9.625a15.285 15.285 0 0 1-4.361-2.148 14.885 14.885 0 0 1-3.416-3.352L4.496 35.47l5.113-1.16c.344-.086.666-.043.967.129.301.171.523.415.666.73l1.719 4.812zm-2.836-24.105c0 1.69.322 3.287.967 4.791a12.24 12.24 0 0 0 2.664 3.932 13.064 13.064 0 0 0 3.931 2.664c1.49.659 3.094.988 4.813.988 1.69 0 3.287-.33 4.791-.988a12.718 12.718 0 0 0 3.932-2.664 12.416 12.416 0 0 0 2.642-3.932c.645-1.504.967-3.1.967-4.791 0-1.69-.322-3.287-.967-4.791a12.416 12.416 0 0 0-2.642-3.932 12.718 12.718 0 0 0-3.932-2.664A11.808 11.808 0 0 0 22.5 3.5c-1.719 0-3.323.33-4.813.988-1.49.66-2.8 1.547-3.931 2.664a12.24 12.24 0 0 0-2.664 3.932 12.034 12.034 0 0 0-.967 4.791zm25.266 18.434l5.113 1.16-5.8-10.7a15.645 15.645 0 0 1-3.503 3.438 15.151 15.151 0 0 1-4.447 2.191l5.285 9.625 1.719-4.855a1.57 1.57 0 0 1 .666-.73c.3-.172.623-.215.967-.13z" fill="#FFC000" fill-rule="evenodd"/></svg>