<svg width="45" height="45" viewBox="0 0 45 45" xmlns="http://www.w3.org/2000/svg"><title>calendario</title><path d="M41.75 4.875c.773 0 1.425.265 1.955.795s.795 1.182.795 1.955V42c0 .745-.265 1.39-.795 1.934s-1.182.816-1.955.816H3.25c-.773 0-1.425-.272-1.955-.816A2.678 2.678 0 0 1 .5 42V7.625c0-.773.265-1.425.795-1.955s1.182-.795 1.955-.795h11v-2.75c0-.372.136-.695.408-.967.272-.272.595-.408.967-.408s.695.136.967.408c.272.272.408.595.408.967v2.75h11v-2.75c0-.372.136-.695.408-.967.272-.272.595-.408.967-.408s.695.136.967.408c.272.272.408.595.408.967v2.75h11zm0 37.125V7.625h-11V9c0 .372-.136.695-.408.967a1.321 1.321 0 0 1-.967.408c-.372 0-.695-.136-.967-.408A1.321 1.321 0 0 1 28 9V7.625H17V9c0 .372-.136.695-.408.967a1.321 1.321 0 0 1-.967.408c-.372 0-.695-.136-.967-.408A1.321 1.321 0 0 1 14.25 9V7.625h-11V42h38.5zm-9.625-19.25c-.372 0-.695-.136-.967-.408a1.321 1.321 0 0 1-.408-.967v-2.75c0-.372.136-.695.408-.967.272-.272.595-.408.967-.408h2.75c.372 0 .695.136.967.408.272.272.408.595.408.967v2.75c0 .372-.136.695-.408.967a1.321 1.321 0 0 1-.967.408h-2.75zm0 11c-.372 0-.695-.136-.967-.408a1.321 1.321 0 0 1-.408-.967v-2.75c0-.372.136-.695.408-.967.272-.272.595-.408.967-.408h2.75c.372 0 .695.136.967.408.272.272.408.595.408.967v2.75c0 .372-.136.695-.408.967a1.321 1.321 0 0 1-.967.408h-2.75zm-8.25-5.5c.372 0 .695.136.967.408.272.272.408.595.408.967v2.75c0 .372-.136.695-.408.967a1.321 1.321 0 0 1-.967.408h-2.75c-.372 0-.695-.136-.967-.408a1.321 1.321 0 0 1-.408-.967v-2.75c0-.372.136-.695.408-.967.272-.272.595-.408.967-.408h2.75zm0-11c.372 0 .695.136.967.408.272.272.408.595.408.967v2.75c0 .372-.136.695-.408.967a1.321 1.321 0 0 1-.967.408h-2.75c-.372 0-.695-.136-.967-.408a1.321 1.321 0 0 1-.408-.967v-2.75c0-.372.136-.695.408-.967.272-.272.595-.408.967-.408h2.75zm-11 0c.372 0 .695.136.967.408.272.272.408.595.408.967v2.75c0 .372-.136.695-.408.967a1.321 1.321 0 0 1-.967.408h-2.75c-.372 0-.695-.136-.967-.408a1.321 1.321 0 0 1-.408-.967v-2.75c0-.372.136-.695.408-.967.272-.272.595-.408.967-.408h2.75zm0 11c.372 0 .695.136.967.408.272.272.408.595.408.967v2.75c0 .372-.136.695-.408.967a1.321 1.321 0 0 1-.967.408h-2.75c-.372 0-.695-.136-.967-.408a1.321 1.321 0 0 1-.408-.967v-2.75c0-.372.136-.695.408-.967.272-.272.595-.408.967-.408h2.75z" fill="#FFC000" fill-rule="evenodd"/></svg>
