<svg width="45" height="45" viewBox="0 0 45 45" xmlns="http://www.w3.org/2000/svg"><title>gorra graduación</title><path d="M43.082 29.656c.401.258.73.595.988 1.01.258.415.387.88.387 1.396 0 .745-.265 1.39-.795 1.934s-1.182.816-1.955.816c-.773 0-1.425-.272-1.955-.816a2.678 2.678 0 0 1-.795-1.934c0-.515.129-.98.387-1.396a3.17 3.17 0 0 1 .988-1.01v-9.625l-5.586 2.922a.668.668 0 0 1 .108.28c.014.1.021.193.021.279v11.945c0 .2-.043.394-.129.58a1.073 1.073 0 0 1-.387.451c-.143.144-1.081.588-2.814 1.332-1.733.745-4.777 1.117-9.13 1.117-4.355 0-7.384-.393-9.089-1.181-1.704-.788-2.628-1.253-2.771-1.397a.936.936 0 0 1-.366-.45 1.602 1.602 0 0 1-.107-.58V23.683c0-.115.014-.23.043-.344a.955.955 0 0 1 .129-.3L1.23 18.226a1.28 1.28 0 0 1-.537-.495 1.352 1.352 0 0 1-.193-.709c0-.257.064-.494.193-.709.13-.214.294-.38.495-.494L21.77 4.734c.2-.114.422-.171.666-.171.243 0 .465.057.666.171l20.71 11.043c.201.144.366.323.495.537a1.352 1.352 0 0 1 0 1.397c-.13.23-.308.401-.537.516l-.688.343v11.086zm-10.957 4.985V24.37l-9.066 4.77c-.115.057-.222.1-.323.129-.1.028-.207.043-.322.043-.115 0-.23-.015-.344-.043a.955.955 0 0 1-.3-.13l-8.938-4.726v10.184c.487.257 1.482.587 2.986.988 1.504.401 3.703.602 6.596.602 2.893 0 5.099-.194 6.617-.58 1.518-.387 2.55-.71 3.094-.967zm-9.71-8.25l17.788-9.41-17.746-9.497L4.711 16.98l17.703 9.41z" fill="#FFC000" fill-rule="evenodd"/></svg>
