<svg width="45" height="45" viewBox="0 0 45 45" xmlns="http://www.w3.org/2000/svg"><title>gráfico</title><path d="M25.25 4.746c2.807 0 5.385.494 7.734 1.483 2.35.988 4.376 2.356 6.08 4.103 1.705 1.747 3.037 3.817 3.997 6.209.96 2.392 1.439 4.992 1.439 7.799 0 2.807-.537 5.45-1.611 7.928-1.075 2.477-2.535 4.64-4.383 6.488-1.848 1.848-4.01 3.308-6.488 4.383-2.478 1.074-5.12 1.611-7.928 1.611-2.807 0-5.407-.487-7.799-1.46-2.392-.975-4.462-2.328-6.209-4.061-1.747-1.734-3.115-3.796-4.103-6.188-.989-2.392-1.483-4.992-1.483-7.799 0-.372.136-.694.408-.967.272-.272.595-.408.967-.408.401 0 .73.136.988.408.258.273.387.595.387.967 0 2.435.423 4.677 1.268 6.725s2.02 3.817 3.523 5.306c1.504 1.49 3.28 2.65 5.328 3.48 2.048.832 4.29 1.247 6.725 1.247 2.435 0 4.726-.465 6.875-1.396 2.148-.931 4.017-2.192 5.607-3.782 1.59-1.59 2.85-3.459 3.782-5.607.93-2.149 1.396-4.44 1.396-6.875 0-2.435-.401-4.677-1.203-6.725s-1.934-3.824-3.395-5.328c-1.46-1.504-3.2-2.678-5.22-3.523-2.02-.845-4.247-1.268-6.682-1.268-.401 0-.73-.129-.988-.387-.258-.257-.387-.587-.387-.988 0-.372.129-.695.387-.967s.587-.408.988-.408zM21.125 20c0 .401-.129.73-.387.988s-.587.387-.988.387H1.875c-.372 0-.695-.129-.967-.387S.5 20.401.5 20c0-2.664.501-5.17 1.504-7.52 1.003-2.349 2.37-4.39 4.103-6.123 1.734-1.733 3.774-3.1 6.123-4.103C14.58 1.25 17.086.75 19.75.75c.401 0 .73.136.988.408.258.272.387.595.387.967V20zm-2.75-1.375V3.543a16.426 16.426 0 0 0-5.65 1.504 16.471 16.471 0 0 0-4.662 3.266 16.471 16.471 0 0 0-3.266 4.662 16.426 16.426 0 0 0-1.504 5.65h15.082z" fill="#FFC000" fill-rule="evenodd"/></svg>