<svg width="33" height="28" viewBox="0 0 33 28" xmlns="http://www.w3.org/2000/svg"><title>Group 12</title><g stroke="#1D4576" fill="none" fill-rule="evenodd" stroke-linecap="round"><g stroke-linejoin="round"><path d="M17.841 27c-2.07-1.722-3.474-3.665-4.212-5.83-1.106-3.248-.626-5.156.45-6.043.718-.592 1.558-.808 2.52-.65V2.26C16.949 1.42 17.63 1 18.647 1c1.017 0 1.668.42 1.953 1.26v10.657"/><path d="M16.599 16.55V2.26C16.949 1.42 17.63 1 18.647 1c1.017 0 1.668.42 1.953 1.26v10.657M20.6 8.54c.449-.693 1.07-1.04 1.864-1.04s1.439.347 1.936 1.04v4.531"/><path d="M24.4 9.469c.413-.694 1.023-1.04 1.83-1.04.808 0 1.464.346 1.97 1.04V14M28.2 12.305c.422-.727 1.006-1.09 1.753-1.09.747 0 1.354.363 1.821 1.09.301 2.601.301 4.869 0 6.802-.301 1.934-1.065 4.565-2.29 7.893"/></g><path d="M10.105 3.273H1.458" stroke-linejoin="round"/><path d="M8.333 1l2.75 2.273-2.75 2.272"/><path d="M1.978 8.727h9.752" stroke-linejoin="round"/><path d="M4.667 11l-2.75-2.273 2.75-2.272"/></g></svg>