<svg width="45" height="45" viewBox="0 0 45 45" xmlns="http://www.w3.org/2000/svg"><title>libro abierto</title><path d="M41.406.836c.802-.23 1.518-.1 2.149.387.63.487.945 1.131.945 1.933v33.43c0 .687-.23 1.325-.688 1.912-.458.587-1.016.967-1.675 1.139L23.96 44.578c-.287.086-.58.143-.88.172-.302.029-.567.043-.796.043-.315 0-.623-.022-.924-.064a7.94 7.94 0 0 1-.795-.15l-17.703-4.9c-.659-.2-1.217-.594-1.675-1.181C.728 37.911.5 37.273.5 36.586V3.156c0-.802.315-1.446.945-1.933.63-.487 1.347-.616 2.149-.387l17.703 4.898c.229.058.551.086.967.086.415 0 .737-.028.966-.086L41.406.836zM21.125 41.87V8.484a1.02 1.02 0 0 1-.28-.043 1.02 1.02 0 0 0-.279-.043L3.25 3.586v33c0 .086.036.172.107.258a.663.663 0 0 0 .194.172l17.574 4.855zm20.625-5.285v-33L23.96 8.398h-.085v33.344l17.531-4.726a.922.922 0 0 0 .215-.172c.086-.086.129-.172.129-.258zm-13.664-20.11c-.287 0-.559-.085-.816-.257a1.236 1.236 0 0 1-.516-.73 1.42 1.42 0 0 1 .15-1.053c.186-.33.451-.552.795-.666l9.625-2.707a1.42 1.42 0 0 1 1.053.15c.33.186.551.465.666.838.086.344.036.68-.15 1.01-.187.329-.452.551-.795.666l-9.625 2.707a.426.426 0 0 1-.194.043h-.193zm0 8.25c-.287 0-.559-.085-.816-.257a1.236 1.236 0 0 1-.516-.73 1.42 1.42 0 0 1 .15-1.053c.186-.33.451-.552.795-.666l9.625-2.707a1.42 1.42 0 0 1 1.053.15c.33.186.551.465.666.838.086.344.036.68-.15 1.01-.187.329-.452.551-.795.666l-9.625 2.707a.426.426 0 0 1-.194.043h-.193zm0 8.25c-.287 0-.559-.085-.816-.257a1.236 1.236 0 0 1-.516-.73 1.42 1.42 0 0 1 .15-1.053c.186-.33.451-.552.795-.666l9.625-2.707a1.42 1.42 0 0 1 1.053.15c.33.186.551.465.666.838.086.344.036.68-.15 1.01-.187.329-.452.551-.795.666l-9.625 2.707a.426.426 0 0 1-.194.043h-.193zM17.473 13.77c.343.114.608.336.795.666.186.329.236.68.15 1.052a1.236 1.236 0 0 1-.516.73c-.257.173-.53.259-.816.259h-.193a.426.426 0 0 1-.194-.043l-9.625-2.707a1.398 1.398 0 0 1-.795-.666 1.331 1.331 0 0 1-.15-1.01c.114-.373.336-.652.666-.838a1.42 1.42 0 0 1 1.053-.15l9.625 2.707zm0 8.25c.343.114.608.336.795.666.186.329.236.68.15 1.052a1.236 1.236 0 0 1-.516.73c-.257.173-.53.259-.816.259h-.193a.426.426 0 0 1-.194-.043l-9.625-2.707a1.398 1.398 0 0 1-.795-.666 1.331 1.331 0 0 1-.15-1.01c.114-.373.336-.652.666-.838a1.42 1.42 0 0 1 1.053-.15l9.625 2.707zm0 8.25c.343.114.608.336.795.666.186.329.236.68.15 1.052a1.236 1.236 0 0 1-.516.73c-.257.173-.53.259-.816.259h-.193a.426.426 0 0 1-.194-.043l-9.625-2.707a1.398 1.398 0 0 1-.795-.666 1.331 1.331 0 0 1-.15-1.01c.114-.373.336-.652.666-.838a1.42 1.42 0 0 1 1.053-.15l9.625 2.707z" fill="#FFC000" fill-rule="evenodd"/></svg>