<svg width="45" height="45" viewBox="0 0 45 45" xmlns="http://www.w3.org/2000/svg"><title>reloj</title><path d="M22.5.75c3.036 0 5.894.573 8.572 1.719 2.679 1.146 5.013 2.714 7.004 4.705 1.991 1.99 3.56 4.325 4.705 7.004 1.146 2.678 1.719 5.536 1.719 8.572 0 3.036-.573 5.894-1.719 8.572-1.146 2.679-2.714 5.013-4.705 7.004-1.99 1.991-4.325 3.56-7.004 4.705-2.678 1.146-5.536 1.719-8.572 1.719-3.036 0-5.894-.573-8.572-1.719-2.679-1.146-5.013-2.714-7.004-4.705-1.991-1.99-3.56-4.325-4.705-7.004C1.073 28.644.5 25.786.5 22.75c0-3.036.573-5.894 1.719-8.572 1.146-2.679 2.714-5.013 4.705-7.004 1.99-1.991 4.325-3.56 7.004-4.705C16.606 1.323 19.464.75 22.5.75zm0 41.293c2.664 0 5.163-.508 7.498-1.525s4.369-2.4 6.102-4.147c1.733-1.747 3.108-3.788 4.125-6.123 1.017-2.335 1.525-4.834 1.525-7.498 0-2.664-.508-5.163-1.525-7.498S37.833 10.883 36.1 9.15c-1.733-1.733-3.767-3.108-6.102-4.125C27.663 4.008 25.164 3.5 22.5 3.5c-2.664 0-5.163.508-7.498 1.525S10.633 7.417 8.9 9.15c-1.733 1.733-3.108 3.767-4.125 6.102-1.017 2.335-1.525 4.834-1.525 7.498 0 2.664.508 5.163 1.525 7.498s2.392 4.376 4.125 6.123c1.733 1.747 3.767 3.13 6.102 4.147 2.335 1.017 4.834 1.525 7.498 1.525zm1.375-19.852l6.488 6.489c.258.258.387.58.387.966 0 .387-.129.71-.387.967-.258.287-.58.43-.967.43-.386 0-.708-.143-.966-.43l-6.832-6.789c0-.028-.008-.05-.022-.064l-.021-.022a1.066 1.066 0 0 1-.323-.43 1.438 1.438 0 0 1-.107-.558V9c0-.372.136-.695.408-.967.272-.272.595-.408.967-.408s.695.136.967.408c.272.272.408.595.408.967v13.191z" fill="#FFC000" fill-rule="evenodd"/></svg>