<svg width="45" height="45" viewBox="0 0 45 45" xmlns="http://www.w3.org/2000/svg"><title>lápiz</title><path d="M41.922 2.898c.86.803 1.504 1.64 1.933 2.514.43.874.66 1.755.688 2.643a5.95 5.95 0 0 1-.602 2.771c-.43.903-1.06 1.783-1.89 2.643-.401.43-2.005 2.034-4.813 4.812-2.807 2.779-5.836 5.78-9.088 9.002-3.25 3.223-6.237 6.18-8.959 8.873-2.721 2.693-4.21 4.168-4.468 4.426a1.264 1.264 0 0 1-.602.344c-.4.114-1.246.38-2.535.795-1.29.415-2.614.838-3.975 1.267-1.36.43-2.585.824-3.673 1.182-1.089.358-1.648.537-1.676.537a.767.767 0 0 1-.194.064 1.332 1.332 0 0 1-.752-.086 1.066 1.066 0 0 1-.43-.322c-.2-.172-.329-.386-.386-.644a1.762 1.762 0 0 1 0-.774c.029-.028.2-.565.516-1.611l1.095-3.63c.416-1.376.817-2.715 1.203-4.018a76.6 76.6 0 0 0 .795-2.815c.058-.114.115-.222.172-.322.058-.1.13-.194.215-.28l13.32-13.32c3.352-3.351 6.453-6.46 9.303-9.324 2.85-2.865 4.376-4.383 4.576-4.555.287-.286.903-.752 1.848-1.396.945-.645 2.105-.967 3.48-.967.888 0 1.74.186 2.557.559.816.372 1.597.916 2.342 1.632zM31.266 7.453a701.553 701.553 0 0 0-5.157 5.113 2851.074 2851.074 0 0 0-6.466 6.489c-2.22 2.234-4.347 4.368-6.381 6.402l-4.856 4.855c.573.23 1.21.56 1.912.989.702.43 1.411 1.002 2.127 1.719.573.601 1.053 1.21 1.44 1.826.386.616.694 1.181.924 1.697 1.203-1.203 2.814-2.8 4.834-4.791 2.02-1.99 4.132-4.082 6.337-6.273l6.424-6.381c2.077-2.063 3.789-3.753 5.135-5.07-.029-.23-.193-.767-.494-1.612-.3-.845-.88-1.697-1.74-2.557-.86-.83-1.662-1.418-2.407-1.761-.744-.344-1.289-.559-1.632-.645zm-24.75 25.18a226.46 226.46 0 0 1-1.31 4.21 624.367 624.367 0 0 0-1.44 4.555c1.346-.43 2.907-.945 4.683-1.546 1.776-.602 3.137-1.06 4.082-1.375-.143-.43-.372-.96-.687-1.59-.315-.63-.774-1.246-1.375-1.848-.802-.802-1.561-1.382-2.278-1.74-.716-.358-1.274-.58-1.675-.666zm33.515-21.14c.573-.574 1.003-1.147 1.29-1.72.286-.572.429-1.117.429-1.632 0-.516-.15-1.046-.451-1.59-.301-.544-.738-1.089-1.31-1.633-.46-.458-.939-.802-1.44-1.031a3.636 3.636 0 0 0-1.526-.344c-.888 0-1.654.23-2.298.687-.645.459-.996.73-1.053.817l-.215.215c.544.229 1.146.551 1.805.967.659.415 1.332.966 2.02 1.654.658.659 1.188 1.332 1.59 2.02.4.687.7 1.317.901 1.89.058-.057.108-.115.15-.172.044-.057.08-.1.108-.129z" fill="#FFC000" fill-rule="evenodd"/></svg>
