<svg width="45" height="45" viewBox="0 0 45 45" xmlns="http://www.w3.org/2000/svg"><title>perfiles</title><path d="M32.555 36.629l1.16.644c.773.43 1.16.989 1.16 1.676v3.48c0 .66-.23 1.211-.688 1.655a2.267 2.267 0 0 1-1.632.666H2.82c-.63 0-1.174-.222-1.632-.666C.728 43.64.5 43.089.5 42.43v-3.48c0-.631.387-1.175 1.16-1.634l1.16-.687 8.895-4.813C10.082 30.527 8.95 28.81 8.32 26.66c-.63-2.148-.945-3.853-.945-5.113v-5.8c0-.975.3-1.942.902-2.901.602-.96 1.39-1.826 2.364-2.6a12.814 12.814 0 0 1 3.33-1.89c1.246-.488 2.499-.731 3.76-.731 1.289 0 2.549.243 3.78.73a12.55 12.55 0 0 1 3.288 1.891c.96.774 1.733 1.64 2.32 2.6.587.96.881 1.926.881 2.9v5.8c0 1.405-.28 3.152-.838 5.243-.558 2.091-1.64 3.781-3.244 5.07l8.637 4.77zM32.125 42v-2.45a1.147 1.147 0 0 0-.3-.214l-.345-.172a.209.209 0 0 1-.107-.043 1.405 1.405 0 0 0-.15-.086l-8.637-4.77a2.905 2.905 0 0 1-.988-.923 2.533 2.533 0 0 1-.43-1.268 2.51 2.51 0 0 1 .193-1.332c.187-.43.466-.788.838-1.074 1.175-.917 1.977-2.227 2.406-3.932.43-1.704.645-3.1.645-4.19v-5.8c0-1.003-.752-2.148-2.256-3.437-1.504-1.29-3.258-1.934-5.264-1.934-1.947 0-3.702.645-5.263 1.934s-2.342 2.434-2.342 3.437v5.8c0 1.09.258 2.486.773 4.19.516 1.705 1.361 3.015 2.536 3.932.343.286.608.644.795 1.074.186.43.25.874.193 1.332-.029.459-.172.881-.43 1.268s-.587.68-.988.88l-8.895 4.856a.19.19 0 0 0-.086.022.337.337 0 0 0-.085.064 1.19 1.19 0 0 0-.366.172l-.322.215V42h28.875zM42.18 29.797l1.16.644c.773.43 1.16.989 1.16 1.676v3.438c0 .659-.23 1.21-.688 1.654a2.267 2.267 0 0 1-1.632.666h-4.555a15.757 15.757 0 0 0-.537-1.59 2.793 2.793 0 0 0-.881-1.16h5.543v-2.45a12.326 12.326 0 0 0-.3-.193 1.198 1.198 0 0 0-.345-.15.27.27 0 0 0-.107-.064 1.179 1.179 0 0 1-.15-.065l-8.766-4.77a2.905 2.905 0 0 1-.988-.923 2.533 2.533 0 0 1-.43-1.268 2.51 2.51 0 0 1 .193-1.332c.187-.43.466-.788.838-1.074 1.175-.945 1.998-2.27 2.471-3.975.473-1.704.709-3.086.709-4.146v-5.8c0-1.032-.773-2.192-2.32-3.481-1.547-1.29-3.323-1.934-5.328-1.934-.974 0-1.913.158-2.815.473a8.745 8.745 0 0 0-2.428 1.289 6.75 6.75 0 0 0-1.718-.301c-.602-.029-1.19-.057-1.762-.086 1.003-1.174 2.292-2.163 3.867-2.965 1.576-.802 3.194-1.203 4.856-1.203 1.289 0 2.556.25 3.802.752a13.295 13.295 0 0 1 3.33 1.912c.974.774 1.762 1.647 2.364 2.621.601.974.902 1.948.902 2.922v5.8c0 1.376-.3 3.116-.902 5.222-.602 2.105-1.705 3.788-3.309 5.048l8.766 4.813z" fill="#FFC000" fill-rule="evenodd"/></svg>