<svg width="45" height="45" viewBox="0 0 45 45" xmlns="http://www.w3.org/2000/svg"><title>libreta</title><path d="M36.98.75c1.146 0 2.12.401 2.922 1.203s1.203 1.776 1.203 2.922v35.75c0 1.146-.4 2.12-1.203 2.922-.802.802-1.776 1.203-2.922 1.203H9.523c-.515 0-1.11-.172-1.783-.516-.673-.343-1.01-1.088-1.01-2.234v-5.543H5.312c-.343 0-.651-.136-.923-.408a1.321 1.321 0 0 1-.409-.967c0-.372.137-.687.409-.945.272-.258.58-.387.923-.387H6.73v-5.5H5.312c-.343 0-.651-.136-.923-.408a1.321 1.321 0 0 1-.409-.967c0-.372.137-.687.409-.945.272-.258.58-.387.923-.387H6.73v-5.586H5.355c-.372 0-.687-.129-.945-.387a1.286 1.286 0 0 1-.387-.945c0-.372.13-.687.387-.945.258-.258.573-.387.945-.387H6.73V11.75H5.227c-.373 0-.688-.129-.946-.387a1.286 1.286 0 0 1-.386-.945c0-.372.128-.695.386-.967s.573-.408.946-.408H6.73V3.586c0-.688.23-1.332.688-1.934C7.876 1.051 8.592.75 9.566.75H36.98zM9.48 42h22V3.5h-22v5.543h1.332c.373 0 .688.136.946.408.258.272.387.595.387.967s-.13.687-.387.945a1.286 1.286 0 0 1-.945.387H9.48v5.543h1.461c.373 0 .688.129.946.387s.386.573.386.945-.128.687-.386.945a1.286 1.286 0 0 1-.946.387h-1.46v5.586h1.417c.373 0 .695.129.967.387s.408.573.408.945-.136.695-.408.967a1.321 1.321 0 0 1-.967.408H9.48v5.5h1.418c.373 0 .695.129.967.387s.408.573.408.945-.136.695-.408.967a1.321 1.321 0 0 1-.967.408H9.48V42zm28.875-1.375V4.875c0-.372-.136-.695-.408-.967a1.321 1.321 0 0 0-.967-.408h-2.75V42h2.75c.373 0 .695-.136.967-.408.272-.272.408-.595.408-.967z" fill="#FFC000" fill-rule="evenodd"/></svg>