<svg width="45" height="45" viewBox="0 0 45 45" xmlns="http://www.w3.org/2000/svg"><title>mapamundi</title><path d="M40.46 18.54c0 2.778-.443 5.356-1.331 7.733-.888 2.378-2.127 4.462-3.717 6.252-1.59 1.79-3.488 3.259-5.693 4.405-2.206 1.146-4.627 1.876-7.262 2.191V42h4.168c.401 0 .738.129 1.01.387s.408.587.408.988c0 .372-.136.695-.408.967a1.372 1.372 0 0 1-1.01.408H15.754c-.401 0-.745-.136-1.031-.408a1.29 1.29 0 0 1-.43-.967c0-.401.143-.73.43-.988.286-.258.63-.387 1.03-.387h3.997v-2.707h-.043c-1.346 0-2.664-.129-3.953-.387a22 22 0 0 1-3.781-1.117 1.382 1.382 0 0 1-.752-.752 1.286 1.286 0 0 1-.022-1.053c.143-.343.394-.587.752-.73a1.343 1.343 0 0 1 1.053 0c1.06.43 2.155.752 3.287.967 1.132.215 2.27.322 3.416.322 2.607 0 5.013-.451 7.219-1.354 2.206-.902 4.103-2.148 5.693-3.738 1.59-1.59 2.836-3.487 3.738-5.693.903-2.206 1.354-4.612 1.354-7.219 0-1.547-.208-3.058-.623-4.533a18.288 18.288 0 0 0-1.762-4.19 17.295 17.295 0 0 0-2.771-3.609 18.785 18.785 0 0 0-3.739-2.879c-.315-.2-.522-.48-.623-.838-.1-.358-.05-.709.15-1.053.173-.315.445-.522.817-.623.373-.1.73-.05 1.074.15 1.576.946 3.001 2.049 4.276 3.31a19.569 19.569 0 0 1 3.222 4.167 20.79 20.79 0 0 1 2.02 4.834c.473 1.705.709 3.46.709 5.264zm-5.628.128c0 2.091-.394 4.053-1.182 5.887a15.248 15.248 0 0 1-3.244 4.812 15.248 15.248 0 0 1-4.812 3.244c-1.834.788-3.796 1.182-5.887 1.182-2.091 0-4.053-.394-5.887-1.182a15.248 15.248 0 0 1-4.812-3.244 15.248 15.248 0 0 1-3.244-4.812c-.788-1.834-1.182-3.796-1.182-5.887 0-2.091.394-4.053 1.182-5.887A15.248 15.248 0 0 1 9.008 7.97a15.551 15.551 0 0 1 4.812-3.266c1.834-.802 3.796-1.203 5.887-1.203 2.091 0 4.053.401 5.887 1.203a15.551 15.551 0 0 1 4.812 3.266 15.248 15.248 0 0 1 3.244 4.812c.788 1.834 1.182 3.796 1.182 5.887zm-27.543 0c0 1.719.33 3.33.988 4.834a12.718 12.718 0 0 0 2.664 3.932 12.416 12.416 0 0 0 3.932 2.642c1.504.645 3.115.967 4.834.967 1.719 0 3.33-.322 4.834-.967a12.416 12.416 0 0 0 3.932-2.642 12.416 12.416 0 0 0 2.642-3.932c.645-1.504.967-3.115.967-4.834 0-1.69-.322-3.294-.967-4.813a12.353 12.353 0 0 0-2.642-3.953 12.718 12.718 0 0 0-3.932-2.664c-1.504-.659-3.115-.988-4.834-.988-1.719 0-3.33.33-4.834.988a12.718 12.718 0 0 0-3.932 2.664 12.648 12.648 0 0 0-2.664 3.953 11.96 11.96 0 0 0-.988 4.813z" fill="#FFC000" fill-rule="evenodd"/></svg>