<?xml version="1.0" encoding="UTF-8" standalone="no"?>
<svg width="40px" height="41px" viewBox="0 0 40 41" version="1.1" xmlns="http://www.w3.org/2000/svg" xmlns:xlink="http://www.w3.org/1999/xlink">
    <!-- Generator: Sketch 50.2 (55047) - http://www.bohemiancoding.com/sketch -->
    <title>people - material copy</title>
    <desc>Created with Sketch.</desc>
    <defs></defs>
    <g id="people---material-copy" stroke="none" stroke-width="1" fill="none" fill-rule="evenodd">
        <path d="M36.328125,16.671875 C36.328125,19.1979293 35.9244832,21.5416559 35.1171875,23.703125 C34.3098918,25.8645941 33.183601,27.7591064 31.7382812,29.3867188 C30.2929615,31.0143311 28.5677184,32.3489531 26.5625,33.390625 C24.5572816,34.4322969 22.3567828,35.0963527 19.9609375,35.3828125 L19.9609375,38 L23.75,38 C24.1145852,38 24.4205717,38.1171863 24.6679688,38.3515625 C24.9153658,38.5859387 25.0390625,38.8854148 25.0390625,39.25 C25.0390625,39.5885434 24.9153658,39.8815092 24.6679688,40.1289062 C24.4205717,40.3763033 24.1145852,40.5 23.75,40.5 L13.8671875,40.5 C13.5026023,40.5 13.1901055,40.3763033 12.9296875,40.1289062 C12.6692695,39.8815092 12.5390625,39.5885434 12.5390625,39.25 C12.5390625,38.8854148 12.6692695,38.5859387 12.9296875,38.3515625 C13.1901055,38.1171863 13.5026023,38 13.8671875,38 L17.5,38 L17.5,35.5390625 L17.4609375,35.5390625 C16.236973,35.5390625 15.0390684,35.4218762 13.8671875,35.1875 C12.6953066,34.9531238 11.5494848,34.6145855 10.4296875,34.171875 C10.1171859,34.041666 9.88932363,33.8138037 9.74609375,33.4882812 C9.60286387,33.1627588 9.59635352,32.8437516 9.7265625,32.53125 C9.85677148,32.2187484 10.0846338,31.9973965 10.4101563,31.8671875 C10.7356787,31.7369785 11.0546859,31.7369785 11.3671875,31.8671875 C12.330734,32.2578145 13.3268178,32.5507803 14.3554688,32.7460938 C15.3841197,32.9414072 16.4192656,33.0390625 17.4609375,33.0390625 C19.830741,33.0390625 22.0182191,32.6289104 24.0234375,31.8085938 C26.0286559,30.9882771 27.753899,29.855476 29.1992188,28.4101563 C30.6445385,26.9648365 31.7773396,25.2395934 32.5976562,23.234375 C33.4179729,21.2291566 33.828125,19.0416785 33.828125,16.671875 C33.828125,15.265618 33.6393248,13.8919338 33.2617188,12.5507812 C32.8841127,11.2096287 32.3502639,9.94011016 31.6601562,8.7421875 C30.9700486,7.54426484 30.1302133,6.45052578 29.140625,5.4609375 C28.1510367,4.47134922 27.0182355,3.59896211 25.7421875,2.84375 C25.4557277,2.66145742 25.2669275,2.40755371 25.1757812,2.08203125 C25.084635,1.75650879 25.1302074,1.43750156 25.3125,1.125 C25.4687508,0.838540234 25.7161441,0.649740039 26.0546875,0.55859375 C26.3932309,0.467447461 26.7187484,0.513019922 27.03125,0.6953125 C28.4635488,1.5546918 29.7591088,2.55728594 30.9179688,3.703125 C32.0768287,4.84896406 33.0533814,6.11197227 33.8476562,7.4921875 C34.6419311,8.87240273 35.2539041,10.3372318 35.6835938,11.8867188 C36.1132834,13.4362057 36.328125,15.0312418 36.328125,16.671875 Z M31.2109375,16.7890625 C31.2109375,18.6901137 30.8528682,20.47395 30.1367188,22.140625 C29.4205693,23.8073 28.4375062,25.2656188 27.1875,26.515625 C25.9374938,27.7656312 24.479175,28.7486943 22.8125,29.4648438 C21.145825,30.1809932 19.3619887,30.5390625 17.4609375,30.5390625 C15.5598863,30.5390625 13.77605,30.1809932 12.109375,29.4648438 C10.4427,28.7486943 8.98438125,27.7656312 7.734375,26.515625 C6.48436875,25.2656188 5.50130566,23.8073 4.78515625,22.140625 C4.06900684,20.47395 3.7109375,18.6901137 3.7109375,16.7890625 C3.7109375,14.8880113 4.06900684,13.104175 4.78515625,11.4375 C5.50130566,9.770825 6.48436875,8.31250625 7.734375,7.0625 C8.98438125,5.81249375 10.4427,4.82292031 12.109375,4.09375 C13.77605,3.36457969 15.5598863,3 17.4609375,3 C19.3619887,3 21.145825,3.36457969 22.8125,4.09375 C24.479175,4.82292031 25.9374938,5.81249375 27.1875,7.0625 C28.4375062,8.31250625 29.4205693,9.770825 30.1367188,11.4375 C30.8528682,13.104175 31.2109375,14.8880113 31.2109375,16.7890625 Z M6.171875,16.7890625 C6.171875,18.3515703 6.47135117,19.8163994 7.0703125,21.1835938 C7.66927383,22.5507881 8.47655742,23.7421824 9.4921875,24.7578125 C10.5078176,25.7734426 11.6992119,26.5742158 13.0664062,27.1601562 C14.4336006,27.7460967 15.8984297,28.0390625 17.4609375,28.0390625 C19.0234453,28.0390625 20.4882744,27.7460967 21.8554688,27.1601562 C23.2226631,26.5742158 24.4140574,25.7734426 25.4296875,24.7578125 C26.4453176,23.7421824 27.2460908,22.5507881 27.8320312,21.1835938 C28.4179717,19.8163994 28.7109375,18.3515703 28.7109375,16.7890625 C28.7109375,15.2525965 28.4179717,13.7942777 27.8320312,12.4140625 C27.2460908,11.0338473 26.4453176,9.83594258 25.4296875,8.8203125 C24.4140574,7.80468242 23.2226631,6.99739883 21.8554688,6.3984375 C20.4882744,5.79947617 19.0234453,5.5 17.4609375,5.5 C15.8984297,5.5 14.4336006,5.79947617 13.0664062,6.3984375 C11.6992119,6.99739883 10.5078176,7.80468242 9.4921875,8.8203125 C8.47655742,9.83594258 7.66927383,11.0338473 7.0703125,12.4140625 C6.47135117,13.7942777 6.171875,15.2525965 6.171875,16.7890625 Z" id="Globe-alt---simple-line-icons" fill="#FFC000"></path>
    </g>
</svg>