<?xml version="1.0" encoding="UTF-8" standalone="no"?>
<svg width="18px" height="19px" viewBox="0 0 18 19" version="1.1" xmlns="http://www.w3.org/2000/svg" xmlns:xlink="http://www.w3.org/1999/xlink">
    <!-- Generator: Sketch 50.2 (55047) - http://www.bohemiancoding.com/sketch -->
    <title></title>
    <desc>Created with Sketch.</desc>
    <defs></defs>
    <g id="Symbols" stroke="none" stroke-width="1" fill="none" fill-rule="evenodd">
        <g id="modulo/-Galería" transform="translate(-336.000000, -13.000000)" fill="#FFFFFF">
            <g id="Group" transform="translate(320.000000, 0.000000)">
                <path d="M21.496,24.088 L18.016,28.6 L31.984,28.6 L27.496,22.6 L24.016,27.088 L21.496,24.088 Z M34,29.584 C34,30.1280027 33.800002,30.599998 33.4,31 C32.999998,31.400002 32.5280027,31.6 31.984,31.6 L18.016,31.6 C17.4719973,31.6 17.000002,31.400002 16.6,31 C16.199998,30.599998 16,30.1280027 16,29.584 L16,15.616 C16,15.0719973 16.199998,14.600002 16.6,14.2 C17.000002,13.799998 17.4719973,13.6 18.016,13.6 L31.984,13.6 C32.5280027,13.6 32.999998,13.799998 33.4,14.2 C33.800002,14.600002 34,15.0719973 34,15.616 L34,29.584 Z" id=""></path>
            </g>
        </g>
    </g>
</svg>
