<?xml version="1.0" encoding="UTF-8" standalone="no"?>
<svg width="40px" height="41px" viewBox="0 0 40 41" version="1.1" xmlns="http://www.w3.org/2000/svg" xmlns:xlink="http://www.w3.org/1999/xlink">
    <!-- Generator: Sketch 50.2 (55047) - http://www.bohemiancoding.com/sketch -->
    <title>people - material copy 4</title>
    <desc>Created with Sketch.</desc>
    <defs></defs>
    <g id="people---material-copy-4" stroke="none" stroke-width="1" fill="none" fill-rule="evenodd">
        <path d="M39.8828125,33.3125 C40.0130215,33.5208344 40.0651043,33.7486967 40.0390625,33.9960938 C40.0130207,34.2434908 39.9218758,34.4713531 39.765625,34.6796875 C39.635416,34.8619801 39.4531262,34.9986975 39.21875,35.0898438 C38.9843738,35.18099 38.7500012,35.1875004 38.515625,35.109375 L32.2265625,33.703125 L30.078125,39.6796875 C29.9999996,39.9140637 29.8632822,40.1028639 29.6679688,40.2460938 C29.4726553,40.3893236 29.2578137,40.4739582 29.0234375,40.5 L28.90625,40.5 C28.6718738,40.5 28.4570322,40.4414068 28.2617188,40.3242188 C28.0664053,40.2070307 27.9166672,40.0442719 27.8125,39.8359375 L21.2890625,27.921875 C21.0807281,27.9479168 20.8658865,27.9674479 20.6445312,27.9804688 C20.423176,27.9934896 20.2083344,28 20,28 C19.7656238,28 19.5312512,27.9934896 19.296875,27.9804688 C19.0624988,27.9674479 18.8281262,27.9479168 18.59375,27.921875 L12.1875,39.8359375 C12.0833328,40.0442719 11.9335947,40.2070307 11.7382813,40.3242188 C11.5429678,40.4414068 11.3281262,40.5 11.09375,40.5 L11.015625,40.5 C10.755207,40.4739582 10.5273447,40.3893236 10.3320312,40.2460938 C10.1367178,40.1028639 10.0000004,39.9140637 9.921875,39.6796875 L7.7734375,33.703125 L1.484375,35.109375 C1.24999883,35.1875004 1.01562617,35.18099 0.78125,35.0898438 C0.546873828,34.9986975 0.364583984,34.8489594 0.234375,34.640625 C0.0781242188,34.4583324 -0.0130207031,34.2434908 -0.0390625,33.9960938 C-0.0651042969,33.7486967 -0.0130214844,33.5208344 0.1171875,33.3125 L7.4609375,19.9140625 C7.07031055,19.0546832 6.77083437,18.1497443 6.5625,17.1992188 C6.35416563,16.2486932 6.25,15.2656301 6.25,14.25 C6.25,12.3489488 6.60806934,10.5651125 7.32421875,8.8984375 C8.04036816,7.2317625 9.02343125,5.77344375 10.2734375,4.5234375 C11.5234438,3.27343125 12.9817625,2.29036816 14.6484375,1.57421875 C16.3151125,0.858069336 18.0989488,0.5 20,0.5 C21.9010512,0.5 23.6848875,0.858069336 25.3515625,1.57421875 C27.0182375,2.29036816 28.4700459,3.27343125 29.7070313,4.5234375 C30.9440166,5.77344375 31.9270797,7.2317625 32.65625,8.8984375 C33.3854203,10.5651125 33.75,12.3489488 33.75,14.25 C33.75,15.2395883 33.6458344,16.19661 33.4375,17.1210938 C33.2291656,18.0455775 32.9427102,18.9374957 32.578125,19.796875 L39.8828125,33.3125 Z M11.328125,36.1640625 L16.015625,27.4140625 C14.5833262,26.971352 13.2617248,26.3203168 12.0507812,25.4609375 C10.8398377,24.6015582 9.8046918,23.5859434 8.9453125,22.4140625 L3.6328125,32.0625 L8.28125,31.0078125 C8.59375156,30.9296871 8.88671738,30.9687492 9.16015625,31.125 C9.43359512,31.2812508 9.63541602,31.5026027 9.765625,31.7890625 L11.328125,36.1640625 Z M8.75,14.25 C8.75,15.786466 9.04296582,17.2382744 9.62890625,18.6054688 C10.2148467,19.9726631 11.0221303,21.1640574 12.0507812,22.1796875 C13.0794322,23.1953176 14.2708266,24.0026012 15.625,24.6015625 C16.9791734,25.2005238 18.4374922,25.5 20,25.5 C21.536466,25.5 22.9882744,25.2005238 24.3554688,24.6015625 C25.7226631,24.0026012 26.9140574,23.1953176 27.9296875,22.1796875 C28.9453176,21.1640574 29.7460908,19.9726631 30.3320312,18.6054688 C30.9179717,17.2382744 31.2109375,15.786466 31.2109375,14.25 C31.2109375,12.713534 30.9179717,11.2617256 30.3320312,9.89453125 C29.7460908,8.52733691 28.9453176,7.33594258 27.9296875,6.3203125 C26.9140574,5.30468242 25.7226631,4.49739883 24.3554688,3.8984375 C22.9882744,3.29947617 21.536466,3 20,3 C18.4374922,3 16.9791734,3.29947617 15.625,3.8984375 C14.2708266,4.49739883 13.0794322,5.30468242 12.0507812,6.3203125 C11.0221303,7.33594258 10.2148467,8.52733691 9.62890625,9.89453125 C9.04296582,11.2617256 8.75,12.713534 8.75,14.25 Z M31.71875,31.0078125 L36.3671875,32.0625 L31.09375,22.3359375 C30.2083289,23.5338602 29.1471416,24.5755164 27.9101562,25.4609375 C26.6731709,26.3463586 25.3255281,27.0104145 23.8671875,27.453125 L28.671875,36.203125 L30.234375,31.7890625 C30.364584,31.5026027 30.5664049,31.2812508 30.8398438,31.125 C31.1132826,30.9687492 31.4062484,30.9296871 31.71875,31.0078125 Z" id="" fill="#FFC000"></path>
    </g>
</svg>