<?xml version="1.0" encoding="UTF-8" standalone="no"?>
<svg width="33px" height="28px" viewBox="0 0 33 28" version="1.1" xmlns="http://www.w3.org/2000/svg" xmlns:xlink="http://www.w3.org/1999/xlink">
    <!-- Generator: Sketch 50.2 (55047) - http://www.bohemiancoding.com/sketch -->
    <title>Group 12</title>
    <desc>Created with Sketch.</desc>
    <defs></defs>
    <g id="Page-1" stroke="none" stroke-width="1" fill="none" fill-rule="evenodd" stroke-linecap="round">
        <g id="Ficha-Actividad---M" transform="translate(-84.000000, -2123.000000)" stroke="#1D4576">
            <g id="Group-7" transform="translate(85.000000, 2124.000000)">
                <g id="Group-12">
                    <g id="Group-3" transform="translate(12.000000, 0.000000)" stroke-linejoin="round">
                        <path d="M4.84146983,26 C2.77081981,24.2783134 1.36681197,22.3348597 0.629446297,20.169639 C-0.476602208,16.9218078 0.00296414673,15.0141209 1.07952392,14.126884 C1.79723044,13.5353928 2.63701963,13.3186115 3.5988915,13.47654 L3.5988915,12.7641354 L3.5988915,1.26000414 C3.94811491,0.420001381 4.63097328,5.8537861e-16 5.64746659,0 C6.6639599,0 7.31480437,0.420001381 7.6,1.26000414 L7.6,7.45442621 L7.6,11.9173896" id="Path-2"></path>
                        <path d="M3.5988915,15.5498497 L3.5988915,1.26000414 C3.94811491,0.420001381 4.63097328,5.8537861e-16 5.64746659,0 C6.6639599,0 7.31480437,0.420001381 7.6,1.26000414 L7.6,7.45442621 L7.6,11.9173896" id="Path-2"></path>
                        <path d="M7.6,7.54043611 C8.04882813,6.84681204 8.67012327,6.5 9.46388541,6.5 C10.2576476,6.5 10.9030191,6.84681204 11.4,7.54043611 L11.4,12.0714286" id="Path-3"></path>
                        <path d="M11.4,8.46900754 C11.8127073,7.77538347 12.4228193,7.42857143 13.2303359,7.42857143 C14.0378526,7.42857143 14.6944073,7.77538347 15.2,8.46900754 L15.2,13" id="Path-3"></path>
                        <path d="M15.2,11.3053871 C15.6221288,10.5779862 16.2064652,10.2142857 16.9530091,10.2142857 C17.699553,10.2142857 18.3065335,10.5779862 18.7739507,11.3053871 C19.0753498,13.9064792 19.0753498,16.1737311 18.7739507,18.1071429 C18.4725515,20.0405546 17.7089716,22.671507 16.4832107,26" id="Path-3"></path>
                    </g>
                    <g id="Group-2">
                        <path d="M9.10490544,2.27272727 L0.458333333,2.27272727" id="Line-8" stroke-linejoin="round"></path>
                        <polyline id="Line-9" points="7.33333333 0 10.0833333 2.27272727 7.33333333 4.54545455"></polyline>
                        <path d="M10.7300459,7.72727273 L0.978427896,7.72727273" id="Line-8" stroke-linejoin="round" transform="translate(5.854237, 7.727273) rotate(-180.000000) translate(-5.854237, -7.727273) "></path>
                        <polyline id="Line-9" transform="translate(2.291667, 7.727273) rotate(-180.000000) translate(-2.291667, -7.727273) " points="0.916666667 5.45454545 3.66666667 7.72727273 0.916666667 10"></polyline>
                    </g>
                </g>
            </g>
        </g>
    </g>
</svg>