<?xml version="1.0" encoding="UTF-8" standalone="no"?>
<svg width="40px" height="41px" viewBox="0 0 40 41" version="1.1" xmlns="http://www.w3.org/2000/svg" xmlns:xlink="http://www.w3.org/1999/xlink">
    <!-- Generator: Sketch 50.2 (55047) - http://www.bohemiancoding.com/sketch -->
    <title>people - material copy 2</title>
    <desc>Created with Sketch.</desc>
    <defs></defs>
    <g id="people---material-copy-2" stroke="none" stroke-width="1" fill="none" fill-rule="evenodd">
        <path d="M38.7109375,27.6875 C39.0755227,27.9218762 39.3749988,28.2278627 39.609375,28.6054688 C39.8437512,28.9830748 39.9609375,29.4062477 39.9609375,29.875 C39.9609375,30.5520867 39.7200545,31.1380184 39.2382812,31.6328125 C38.756508,32.1276066 38.164066,32.375 37.4609375,32.375 C36.757809,32.375 36.165367,32.1276066 35.6835938,31.6328125 C35.2018205,31.1380184 34.9609375,30.5520867 34.9609375,29.875 C34.9609375,29.4062477 35.0781238,28.9830748 35.3125,28.6054688 C35.5468762,28.2278627 35.8463523,27.9218762 36.2109375,27.6875 L36.2109375,18.9375 L31.1328125,21.59375 C31.1848961,21.6718754 31.2174479,21.75651 31.2304688,21.8476562 C31.2434896,21.9388025 31.25,22.0234371 31.25,22.1015625 L31.25,32.9609375 C31.25,33.1432301 31.2109379,33.3190096 31.1328125,33.4882812 C31.0546871,33.6575529 30.9375008,33.7942703 30.78125,33.8984375 C30.651041,34.0286465 29.798185,34.4322883 28.2226562,35.109375 C26.6471275,35.7864617 23.8802281,36.125 19.921875,36.125 C15.9635219,36.125 13.2096432,35.7669307 11.6601562,35.0507812 C10.1106693,34.3346318 9.27083398,33.911459 9.140625,33.78125 C8.98437422,33.6770828 8.87369824,33.5403654 8.80859375,33.3710938 C8.74348926,33.2018221 8.7109375,33.0260426 8.7109375,32.84375 L8.7109375,22.2578125 C8.7109375,22.1536453 8.7239582,22.0494797 8.75,21.9453125 C8.7760418,21.8411453 8.81510391,21.7500004 8.8671875,21.671875 L0.6640625,17.296875 C0.455728125,17.1927078 0.292969336,17.0429697 0.17578125,16.8476562 C0.0585931641,16.6523428 0,16.4375012 0,16.203125 C0,15.9687488 0.0585931641,15.7539072 0.17578125,15.5585938 C0.292969336,15.3632803 0.442707422,15.2135422 0.625,15.109375 L19.3359375,5.03125 C19.5182301,4.92708281 19.720051,4.875 19.9414062,4.875 C20.1627615,4.875 20.3645824,4.92708281 20.546875,5.03125 L39.375,15.0703125 C39.5572926,15.2005215 39.7070307,15.3632803 39.8242188,15.5585938 C39.9414068,15.7539072 40,15.9687488 40,16.203125 C40,16.4114594 39.9414068,16.6197906 39.8242188,16.828125 C39.7070307,17.0364594 39.5442719,17.1927078 39.3359375,17.296875 L38.7109375,17.609375 L38.7109375,27.6875 Z M28.75,32.21875 L28.75,22.8828125 L20.5078125,27.21875 C20.4036453,27.2708336 20.30599,27.3098957 20.2148438,27.3359375 C20.1236975,27.3619793 20.0260422,27.375 19.921875,27.375 C19.8177078,27.375 19.7135422,27.3619793 19.609375,27.3359375 C19.5052078,27.3098957 19.4140629,27.2708336 19.3359375,27.21875 L11.2109375,22.921875 L11.2109375,32.1796875 C11.653648,32.4140637 12.5585869,32.7135398 13.9257812,33.078125 C15.2929756,33.4427102 17.2916535,33.625 19.921875,33.625 C22.5520965,33.625 24.5572848,33.4492205 25.9375,33.0976562 C27.3177152,32.746092 28.2552059,32.4531262 28.75,32.21875 Z M19.921875,24.71875 L36.09375,16.1640625 L19.9609375,7.53125 L3.828125,16.1640625 L19.921875,24.71875 Z" id="" fill="#FFC000"></path>
    </g>
</svg>