<svg width="150" height="39" viewBox="0 0 150 39" xmlns="http://www.w3.org/2000/svg"><title>Group</title><g fill="none" fill-rule="evenodd"><path d="M19.75 38.759a18.97 18.97 0 0 1-13.502-5.593A18.97 18.97 0 0 1 .655 19.663c0-5.1 1.986-9.896 5.593-13.502A18.97 18.97 0 0 1 19.75.568 18.97 18.97 0 0 1 33.254 6.16a18.972 18.972 0 0 1 5.593 13.502c0 5.1-1.987 9.896-5.593 13.503a18.97 18.97 0 0 1-13.503 5.593" fill="#CAAF00"/><path d="M35.816 19.663c0 8.89-7.208 16.098-16.099 16.098-8.89 0-16.098-7.207-16.098-16.098 0-8.891 7.207-16.098 16.099-16.098 8.89 0 16.098 7.207 16.098 16.098" fill="#0C4693"/><path d="M8.084 15.906c-2.37 8.474 3.645 12.621 3.645 12.621v-2.005s-3.691-4.42-1.96-9.75l7.108 3.964v10.48l1.823.728V7.568s-8.336.183-10.616 8.338zm8.793 2.05l-6.196-3.189s2.05-4.374 6.196-4.693v7.882z" fill="#FFF"/><path d="M18.836 32.146l-2.096-.838V20.816l-6.89-3.843c-1.567 5.129 1.947 9.418 1.983 9.462l.032.038v2.314l-.214-.148c-.063-.043-1.543-1.078-2.752-3.176-1.115-1.935-2.184-5.17-.947-9.593 1.192-4.264 4.05-6.332 6.238-7.315 2.367-1.064 4.485-1.123 4.506-1.123l.14-.003v24.717zm-1.822-1.023l1.55.619V7.712c-.505.033-2.298.207-4.27 1.096-2.132.96-4.917 2.978-6.079 7.135-1.21 4.332-.168 7.494.921 9.383.912 1.583 2.002 2.559 2.456 2.925v-1.68c-.172-.214-.978-1.266-1.619-2.874-.653-1.637-1.24-4.175-.334-6.967l.052-.158 7.323 4.084v10.467zm0-12.942l-6.513-3.352.056-.12c.021-.044 2.132-4.45 6.31-4.771l.147-.011v8.254zm-6.15-3.473l5.876 3.025v-7.51c-3.549.363-5.519 3.8-5.876 4.485zM27.766 17.729l3.69-1.686s-2.642-8.155-11.344-8.52v24.376s10.934-.502 11.937-10.616l-4.283-3.554zm-5.559-7.563c4.557 0 6.607 4.829 6.607 4.829l-6.607 2.825v-7.654zm.046 19.227v-8.748l3.326-1.914 3.827 3.326c-.228 6.56-7.153 7.336-7.153 7.336z" fill="#FFF"/><path d="M19.975 32.041V7.381l.142.005c4.545.19 7.422 2.522 9.035 4.445 1.746 2.082 2.428 4.15 2.435 4.17l.037.115-3.603 1.646 4.171 3.461-.007.073c-.524 5.288-3.78 7.927-6.42 9.21-2.852 1.386-5.619 1.527-5.647 1.528l-.143.007zm.273-24.374V31.75c.597-.049 2.97-.309 5.405-1.495 1.64-.797 2.986-1.854 4.004-3.137 1.258-1.587 2.014-3.53 2.248-5.777l-4.394-3.648 3.775-1.723c-.168-.458-.869-2.209-2.35-3.972-1.56-1.857-4.329-4.105-8.688-4.333zm1.868 21.879v-8.98l3.48-2.002 3.95 3.432-.003.066c-.12 3.451-2.095 5.3-3.73 6.241-1.765 1.016-3.473 1.217-3.545 1.225l-.152.018zm.274-8.823v8.512a10.134 10.134 0 0 0 3.294-1.172c2.268-1.31 3.473-3.31 3.583-5.945l-3.704-3.22-3.173 1.825zm-.319-2.697v-7.998h.137c2.404 0 4.107 1.338 5.113 2.461 1.085 1.21 1.598 2.402 1.62 2.452l.052.126-6.922 2.96zm.273-7.723v7.31l6.287-2.689c-.356-.74-2.37-4.534-6.287-4.62z" fill="#FFF"/><path d="M45.081 14.638h.116l3.472 7.617h-1.956l-.416-1.02h-2.385l-.428 1.02h-1.887l3.484-7.617zm.73 5.232l-.696-1.655-.682 1.655h1.377zM52.363 19.187l-.544 3.067h-1.84l1.516-7.616h.115l2.778 4.503 2.756-4.503h.115l1.528 7.616h-1.794l-.58-3.067-1.955 3.183h-.116zM60.525 14.753h4.744v1.482h-2.916v1.458h2.015v1.47h-2.014v1.597h3.055v1.494h-4.885zM67.239 14.753h2.431c1.435 0 3.055.324 3.055 2.5 0 1.331-.601 2.003-1.354 2.27l1.887 2.731h-2.211l-1.574-2.478h-.406v2.478h-1.828v-7.5zm1.944 3.577c.938 0 1.656-.116 1.656-1.077 0-1.088-.857-1.065-1.459-1.065h-.313v2.142h.116zM74.844 22.254h1.829v-7.501h-1.829zM78.538 18.515c0-2.258 1.609-3.878 4.005-3.878.926 0 1.632.22 2.095.498v1.76a3.689 3.689 0 0 0-2.002-.614c-1.286 0-2.212.914-2.212 2.211 0 1.412.95 2.222 2.246 2.222 1.054 0 1.748-.393 2.083-.625v1.794c-.416.267-1.203.486-2.175.486-2.582 0-4.04-1.713-4.04-3.854M89.592 14.638h.116l3.473 7.617h-1.956l-.417-1.02h-2.385l-.428 1.02h-1.887l3.484-7.617zm.73 5.232l-.695-1.655-.683 1.655h1.378zM96.492 18.353v3.9H94.71v-7.615h.115l4.642 4.016.012-3.9h1.782v7.616h-.116z" fill="#0C4693"/><g fill="#0C4693"><path d="M106.425 14.753h2.187c1.401 0 2.837.451 2.837 2.118 0 .764-.325 1.158-.683 1.297.44.138 1.296.613 1.296 1.921 0 1.841-1.574 2.165-2.998 2.165h-2.639v-7.5zm2.118 2.998c.51 0 1.053-.093 1.053-.753 0-.648-.405-.798-1.053-.798h-.289v1.551h.29zm.521 3.045c.486 0 1.135-.047 1.135-.777 0-.844-.753-.844-1.135-.844h-.81v1.621h.81zM113.846 14.753h2.43c1.436 0 3.057.324 3.057 2.5 0 1.331-.602 2.003-1.355 2.27l1.887 2.731h-2.211l-1.574-2.478h-.405v2.478h-1.83v-7.5zm1.945 3.577c.937 0 1.655-.116 1.655-1.077 0-1.088-.856-1.065-1.46-1.065h-.311v2.142h.116z"/></g><path fill="#0C4693" d="M121.451 22.254h1.829v-7.501h-1.829zM126.996 16.235h-1.98v-1.482h5.777v1.482h-1.968v6.019h-1.829zM132.53 22.254h1.829v-7.501h-1.829zM136.361 21.919V20.18c.521.36 1.25.662 2.014.662.568 0 .868-.244.868-.614 0-1.194-2.836-.81-2.836-3.369 0-1.354.903-2.223 2.524-2.223.856 0 1.528.22 1.794.358v1.714c-.452-.29-1.11-.555-1.667-.555-.532 0-.798.255-.798.625 0 1.17 2.847.776 2.847 3.299 0 1.436-.938 2.291-2.674 2.291a4.882 4.882 0 0 1-2.072-.45M142.902 14.753h1.83v2.94h2.8v-2.94h1.83v7.501h-1.83v-3.068h-2.8v3.068h-1.83z"/><g fill="#706F6F"><path d="M42.648 32.319v-1.592c.478.329 1.147.605 1.847.605.52 0 .796-.223.796-.563 0-1.093-2.601-.743-2.601-3.09 0-1.24.829-2.036 2.315-2.036.785 0 1.4.2 1.645.329v1.57c-.414-.265-1.02-.51-1.528-.51-.49 0-.733.234-.733.575 0 1.072 2.61.71 2.61 3.024 0 1.316-.86 2.102-2.45 2.102a4.48 4.48 0 0 1-1.901-.414M48.325 29.199c0-2.07 1.476-3.556 3.673-3.556.848 0 1.496.2 1.921.456v1.614a3.38 3.38 0 0 0-1.836-.563c-1.179 0-2.027.838-2.027 2.028 0 1.295.87 2.038 2.058 2.038.967 0 1.603-.362 1.911-.574v1.646c-.382.244-1.104.445-1.995.445-2.367 0-3.705-1.571-3.705-3.534"/></g><path fill="#706F6F" d="M55.828 25.749h1.677v2.696h2.568v-2.696h1.677v6.878h-1.677v-2.813h-2.568v2.813h-1.677z"/><g fill="#706F6F"><path d="M63.426 29.188c0-2.112 1.444-3.545 3.64-3.545 2.145 0 3.577 1.433 3.577 3.524 0 2.07-1.454 3.566-3.64 3.566-2.166 0-3.577-1.465-3.577-3.545m5.487.01c0-1.336-.902-2.048-1.879-2.048-1.029 0-1.878.722-1.878 2.017 0 1.358.87 2.038 1.9 2.038.998 0 1.857-.69 1.857-2.006M72.032 29.188c0-2.112 1.444-3.545 3.64-3.545 2.145 0 3.578 1.433 3.578 3.524 0 2.07-1.454 3.566-3.64 3.566-2.166 0-3.578-1.465-3.578-3.545m5.488.01c0-1.336-.902-2.048-1.879-2.048-1.03 0-1.878.722-1.878 2.017 0 1.358.87 2.038 1.9 2.038.997 0 1.857-.69 1.857-2.006"/></g><path fill="#706F6F" d="M80.925 25.749h1.677v5.509h2.908v1.369h-4.585z"/></g></svg>