<svg width="40" height="41" viewBox="0 0 40 41" xmlns="http://www.w3.org/2000/svg"><title>people - material copy 4</title><path d="M39.883 33.313c.13.208.182.436.156.683a1.36 1.36 0 0 1-.273.684c-.13.182-.313.319-.547.41a1.006 1.006 0 0 1-.703.02l-6.29-1.407-2.148 5.977a1.126 1.126 0 0 1-.41.566 1.32 1.32 0 0 1-.645.254h-.117a1.23 1.23 0 0 1-.644-.176 1.163 1.163 0 0 1-.45-.488L21.29 27.922a10.982 10.982 0 0 1-1.992.059 12.79 12.79 0 0 1-.703-.06l-6.407 11.915a1.163 1.163 0 0 1-.449.488 1.23 1.23 0 0 1-.644.176h-.078a1.362 1.362 0 0 1-.684-.254 1.126 1.126 0 0 1-.41-.566l-2.149-5.977-6.289 1.406a1.006 1.006 0 0 1-.703-.02 1.095 1.095 0 0 1-.547-.448 1.152 1.152 0 0 1-.273-.645 1.048 1.048 0 0 1 .156-.684l7.344-13.398c-.39-.86-.69-1.764-.899-2.715a13.737 13.737 0 0 1-.312-2.949c0-1.901.358-3.685 1.074-5.352a13.862 13.862 0 0 1 2.95-4.375 13.862 13.862 0 0 1 4.374-2.949C16.315.858 18.098.5 20 .5c1.901 0 3.685.358 5.352 1.074 1.666.716 3.118 1.7 4.355 2.95a14.31 14.31 0 0 1 2.95 4.374c.728 1.667 1.093 3.45 1.093 5.352 0 .99-.104 1.947-.313 2.871a15.64 15.64 0 0 1-.859 2.676l7.305 13.515zm-28.555 2.851l4.688-8.75a13.896 13.896 0 0 1-3.965-1.953 13.532 13.532 0 0 1-3.106-3.047l-5.312 9.648 4.648-1.054c.313-.078.606-.04.88.117.273.156.474.378.605.664l1.562 4.375zM8.75 14.25c0 1.536.293 2.988.879 4.355a11.128 11.128 0 0 0 2.422 3.575 11.877 11.877 0 0 0 3.574 2.422c1.354.599 2.812.898 4.375.898 1.536 0 2.988-.3 4.355-.898a11.561 11.561 0 0 0 3.575-2.422 11.287 11.287 0 0 0 2.402-3.575 10.94 10.94 0 0 0 .879-4.355 10.94 10.94 0 0 0-.879-4.355A11.287 11.287 0 0 0 27.93 6.32a11.561 11.561 0 0 0-3.575-2.422A10.735 10.735 0 0 0 20 3c-1.563 0-3.02.3-4.375.898a11.877 11.877 0 0 0-3.574 2.422 11.128 11.128 0 0 0-2.422 3.575 10.94 10.94 0 0 0-.879 4.355zm22.969 16.758l4.648 1.055-5.273-9.727a14.223 14.223 0 0 1-3.184 3.125 13.774 13.774 0 0 1-4.043 1.992l4.805 8.75 1.562-4.414c.13-.286.332-.508.606-.664.273-.156.566-.195.879-.117z" fill="#FFC000" fill-rule="evenodd"/></svg>