<svg width="40" height="41" viewBox="0 0 40 41" xmlns="http://www.w3.org/2000/svg"><title>people - material copy 2</title><path d="M38.71 27.688c.366.234.665.54.9.917.234.378.35.801.35 1.27 0 .677-.24 1.263-.722 1.758a2.384 2.384 0 0 1-1.777.742 2.384 2.384 0 0 1-1.777-.742 2.435 2.435 0 0 1-.723-1.758c0-.469.117-.892.352-1.27.234-.377.533-.683.898-.918v-8.75l-5.078 2.657a.607.607 0 0 1 .097.254c.013.09.02.175.02.254V32.96c0 .182-.04.358-.117.527a.976.976 0 0 1-.352.41c-.13.13-.983.534-2.558 1.211-1.576.677-4.343 1.016-8.301 1.016s-6.712-.358-8.262-1.074c-1.55-.716-2.39-1.14-2.52-1.27a.851.851 0 0 1-.331-.41 1.457 1.457 0 0 1-.098-.527V22.258c0-.104.013-.209.039-.313a.868.868 0 0 1 .117-.273L.664 17.297a1.163 1.163 0 0 1-.488-.45A1.23 1.23 0 0 1 0 16.204c0-.234.059-.45.176-.644.117-.196.267-.345.449-.45l18.71-10.078c.183-.104.385-.156.606-.156.222 0 .424.052.606.156l18.828 10.04c.182.13.332.292.45.488a1.23 1.23 0 0 1 0 1.27 1.13 1.13 0 0 1-.49.468l-.624.312v10.078zm-9.96 4.53v-9.335l-8.242 4.336a1.715 1.715 0 0 1-.293.117c-.091.026-.189.039-.293.039-.104 0-.208-.013-.313-.04a.868.868 0 0 1-.273-.116l-8.125-4.297v9.258c.443.234 1.348.534 2.715.898 1.367.365 3.366.547 5.996.547 2.63 0 4.635-.176 6.015-.527 1.38-.352 2.318-.645 2.813-.88zm-8.828-7.5l16.172-8.554L19.96 7.531 3.828 16.164l16.094 8.555z" fill="#FFC000" fill-rule="evenodd"/></svg>