<svg width="40" height="41" viewBox="0 0 40 41" xmlns="http://www.w3.org/2000/svg"><title>people - material copy</title><path d="M36.328 16.672c0 2.526-.404 4.87-1.21 7.031-.808 2.162-1.934 4.056-3.38 5.684-1.445 1.627-3.17 2.962-5.175 4.004-2.006 1.041-4.206 1.705-6.602 1.992V38h3.789c.365 0 .67.117.918.352.247.234.371.533.371.898 0 .339-.124.632-.371.879a1.247 1.247 0 0 1-.918.371h-9.883c-.364 0-.677-.124-.937-.371s-.39-.54-.39-.879c0-.365.13-.664.39-.898.26-.235.573-.352.937-.352H17.5v-2.46h-.04a18.28 18.28 0 0 1-3.593-.352 20 20 0 0 1-3.437-1.016 1.257 1.257 0 0 1-.684-.684 1.17 1.17 0 0 1-.02-.957c.13-.312.359-.534.684-.664.326-.13.645-.13.957 0 .964.39 1.96.684 2.988.88 1.03.194 2.064.292 3.106.292 2.37 0 4.557-.41 6.562-1.23 2.006-.82 3.73-1.954 5.176-3.399 1.446-1.445 2.578-3.17 3.399-5.176.82-2.005 1.23-4.192 1.23-6.562 0-1.406-.189-2.78-.566-4.121a16.625 16.625 0 0 0-1.602-3.809 15.723 15.723 0 0 0-2.52-3.281 17.078 17.078 0 0 0-3.398-2.617 1.285 1.285 0 0 1-.566-.762 1.194 1.194 0 0 1 .137-.957c.156-.286.403-.475.742-.566.338-.092.664-.046.976.136a20.513 20.513 0 0 1 3.887 3.008 17.79 17.79 0 0 1 2.93 3.79 18.9 18.9 0 0 1 1.836 4.394c.43 1.55.644 3.144.644 4.785zm-5.117.117c0 1.901-.358 3.685-1.074 5.352a13.862 13.862 0 0 1-2.95 4.375 13.862 13.862 0 0 1-4.375 2.949c-1.666.716-3.45 1.074-5.351 1.074-1.901 0-3.685-.358-5.352-1.074a13.862 13.862 0 0 1-4.375-2.95 13.862 13.862 0 0 1-2.949-4.374c-.716-1.667-1.074-3.45-1.074-5.352 0-1.901.358-3.685 1.074-5.352a13.862 13.862 0 0 1 2.95-4.374 14.137 14.137 0 0 1 4.374-2.97C13.776 3.366 15.56 3 17.461 3c1.901 0 3.685.365 5.352 1.094a14.137 14.137 0 0 1 4.375 2.968 13.862 13.862 0 0 1 2.949 4.375c.716 1.667 1.074 3.451 1.074 5.352zm-25.04 0c0 1.563.3 3.027.9 4.395a11.561 11.561 0 0 0 2.421 3.574 11.287 11.287 0 0 0 3.574 2.402c1.368.586 2.832.88 4.395.88 1.562 0 3.027-.294 4.394-.88a11.287 11.287 0 0 0 3.575-2.402 11.287 11.287 0 0 0 2.402-3.574c.586-1.368.879-2.832.879-4.395a11.08 11.08 0 0 0-.879-4.375A11.23 11.23 0 0 0 25.43 8.82a11.561 11.561 0 0 0-3.575-2.422C20.488 5.8 19.023 5.5 17.461 5.5c-1.563 0-3.027.3-4.395.898A11.561 11.561 0 0 0 9.492 8.82a11.498 11.498 0 0 0-2.422 3.594 10.872 10.872 0 0 0-.898 4.375z" fill="#FFC000" fill-rule="evenodd"/></svg>